<?xml version="1.0" encoding="UTF-8"?>
<svg version="1.1" xmlns="http://www.w3.org/2000/svg" width="1024" height="1024">
<path d="M0 0 C337.92 0 675.84 0 1024 0 C1024 337.92 1024 675.84 1024 1024 C686.08 1024 348.16 1024 0 1024 C0 686.08 0 348.16 0 0 Z " fill="#FEFEFE" transform="translate(0,0)"/>
<path d="M0 0 C0.33 0.66 0.66 1.32 1 2 C-0.05712891 4.62841797 -0.05712891 4.62841797 -1.7265625 7.9921875 C-2.02546387 8.60101273 -2.32436523 9.20983795 -2.63232422 9.83711243 C-3.28190962 11.15863356 -3.93499669 12.47843781 -4.59112549 13.79672241 C-6.34828613 17.32893791 -8.07865106 20.87426865 -9.8125 24.41796875 C-10.16704254 25.14089615 -10.52158508 25.86382355 -10.88687134 26.60865784 C-14.22463012 33.42646888 -17.44310324 40.29543981 -20.625 47.1875 C-21.15456299 48.3331543 -21.68412598 49.47880859 -22.22973633 50.65917969 C-23.29408209 52.96399182 -24.35764588 55.26916523 -25.42041016 57.57470703 C-28.04307 63.26186586 -30.67691444 68.943822 -33.3125 74.625 C-33.84190186 75.76694824 -34.37130371 76.90889648 -34.91674805 78.08544922 C-37.88439181 84.47722927 -40.87164206 90.85910554 -43.8828125 97.23046875 C-44.21429794 97.93205109 -44.54578339 98.63363342 -44.88731384 99.35647583 C-45.22122635 100.06319427 -45.55513885 100.76991272 -45.89916992 101.49804688 C-46.57863019 102.93618993 -47.25807352 104.37434098 -47.9375 105.8125 C-48.27310944 106.52269287 -48.60871887 107.23288574 -48.95449829 107.96459961 C-53.91450849 118.46923788 -58.74894679 129.0243561 -63.5 139.625 C-67.17273911 147.81938619 -70.87587066 155.97455341 -74.97485352 163.96630859 C-78.12771726 170.15074058 -81.0271185 176.44855915 -83.9375 182.75 C-96.10963842 209.08595104 -108.56939064 235.27858375 -121.26411438 261.36637878 C-124.19848482 267.4001985 -127.10275431 273.44827191 -130 279.5 C-135.00162565 289.94411624 -140.05182925 300.36422245 -145.10940552 310.78131104 C-149.67304352 320.18252035 -154.20779132 329.59653753 -158.70288086 339.03076172 C-163.33377628 348.73219997 -168.045105 358.39443601 -172.74945068 368.06039429 C-177.20706228 377.22109036 -181.6611079 386.38217443 -185.96142578 395.61816406 C-189.48802805 403.15324043 -193.26722643 410.56572401 -197 418 C-200.41976001 424.81611912 -203.83741229 431.63329228 -207.25317383 438.45141602 C-208.28662595 440.51330428 -209.32079713 442.57483231 -210.35571289 444.63598633 C-216.40097601 456.67753585 -222.35045033 468.75572052 -228.13929749 480.92274475 C-234.09005679 493.41729809 -240.35404647 505.74103469 -246.7260437 518.02484131 C-254.59387068 533.20147224 -262.27459735 548.46762968 -269.87207031 563.78125 C-274.7164132 573.529985 -279.69230356 583.1979251 -284.79467773 592.81420898 C-287.62626394 598.1615736 -290.33311277 603.56865649 -293 609 C-296.51382614 607.82872462 -296.93324962 606.74449483 -298.57217407 603.5745697 C-299.05271744 602.60759911 -299.05271744 602.60759911 -299.54296875 601.62109375 C-299.89555756 600.93112808 -300.24814636 600.24116241 -300.61141968 599.5302887 C-301.8134062 597.17094283 -303.00046284 594.80439872 -304.1875 592.4375 C-305.04680046 590.74120997 -305.90676676 589.0452571 -306.76733398 587.34960938 C-309.27539436 582.39774423 -311.76739882 577.437935 -314.25598145 572.47625732 C-315.79889828 569.40084513 -317.34357638 566.32632911 -318.8891077 563.25223064 C-323.10166517 554.87331168 -327.30742634 546.49100135 -331.50763321 538.10588455 C-332.20597153 536.71175603 -332.90441314 535.31767925 -333.60296249 533.92365646 C-347.05577936 507.07497447 -347.05577936 507.07497447 -353.21484375 494.0625 C-358.14549359 483.65699257 -363.28109068 473.35735859 -368.4375 463.0625 C-368.86254759 462.21383362 -369.28759518 461.36516724 -369.72552299 460.49078369 C-372.81417958 454.32576574 -375.90670761 448.16269293 -379 442 C-382.10125389 435.82144556 -385.20103405 429.6421599 -388.2973938 423.46115112 C-389.50897012 421.04428214 -390.72302224 418.62866949 -391.93725586 416.21313477 C-396.0331437 408.04798727 -400.03767746 399.84695401 -403.953125 391.59375 C-411.37281869 375.98711794 -419.16326983 360.56396434 -426.90741348 345.11671066 C-429.08739145 340.76690861 -431.26465677 336.41574922 -433.44213867 332.06469727 C-438.9590204 321.04192646 -444.47931442 310.02086604 -450 299 C-455.96499414 287.09216711 -461.92934735 275.18401555 -467.88976383 263.2738905 C-470.04442715 258.96867713 -472.1999235 254.66388545 -474.35751343 250.36013794 C-482.65977978 233.79921792 -490.9457863 217.2396678 -498.86579895 200.49143982 C-501.39078227 195.15340013 -504.01576555 189.86745885 -506.68115234 184.59814453 C-511.41769113 175.21398956 -516.11403959 165.80949478 -520.82074165 156.41034508 C-522.47682365 153.10334143 -524.13367089 149.7967257 -525.79223633 146.4909668 C-532.6182205 132.88444728 -539.4062585 119.26656204 -545.93875122 105.51583862 C-551.03269376 94.79846045 -556.26607357 84.14990471 -561.4987793 73.49975586 C-563.1978088 70.04151726 -564.8949328 66.58234843 -566.59179688 63.12304688 C-571.52058013 53.08046154 -576.46266008 43.04571532 -581.4818573 33.04798889 C-583.89528541 28.23227628 -586.22980526 23.38464032 -588.5 18.5 C-588.84546875 17.76136719 -589.1909375 17.02273437 -589.546875 16.26171875 C-590.36647106 14.50869384 -591.18355251 12.75449353 -592 11 C-587.96301393 12.81003405 -584.43027354 15.36012053 -580.8125 17.875 C-580.11125 18.3596875 -579.41 18.844375 -578.6875 19.34375 C-572.88008644 23.36664749 -567.11068072 27.44286068 -561.34545898 31.52587891 C-556.7126917 34.80306071 -552.05641388 38.0427411 -547.375 41.25 C-533.43451619 50.80122891 -519.58359668 60.48231837 -505.75 70.1875 C-498.51702036 75.26140263 -491.24005073 80.26680397 -483.93920898 85.24243164 C-477.98130934 89.31007646 -472.08035772 93.45316733 -466.19580078 97.62597656 C-460.90496967 101.3735972 -455.57317632 105.05728869 -450.22314453 108.71972656 C-444.85207688 112.40162287 -439.51698414 116.13322916 -434.1875 119.875 C-427.6542164 124.46035209 -421.09518812 129.00415428 -414.5 133.5 C-407.74413462 138.10794464 -401.01569251 142.75322155 -394.3125 147.4375 C-393.49910156 148.0046875 -392.68570313 148.571875 -391.84765625 149.15625 C-391.0690625 149.70152344 -390.29046875 150.24679687 -389.48828125 150.80859375 C-388.81321533 151.28095459 -388.13814941 151.75331543 -387.44262695 152.23999023 C-386.63656006 152.82079346 -385.83049316 153.40159668 -385 154 C-384.37284592 154.41259567 -383.74569183 154.82519135 -383.09953308 155.25028992 C-377.83706858 158.87530141 -375.13248517 162.34037386 -372.44921875 168.08984375 C-372.06861801 168.86246048 -371.68801727 169.63507721 -371.29588318 170.43110657 C-370.07355304 172.92425951 -368.88043417 175.43016841 -367.6875 177.9375 C-366.84339778 179.6730594 -365.99751956 181.40775611 -365.14990234 183.14160156 C-363.09963946 187.34773617 -361.07222172 191.56428547 -359.05645752 195.78704834 C-358.1288817 197.73003271 -357.19818907 199.67145782 -356.26513672 201.61181641 C-354.454944 205.37775393 -352.64811669 209.14510405 -350.86010742 212.92163086 C-347.50710452 219.99903621 -344.01844368 227.0035604 -340.5 234 C-336.0028781 242.94756316 -331.59755785 251.93066565 -327.30029297 260.97583008 C-324.70232236 266.44311075 -322.08461283 271.90008844 -319.4375 277.34375 C-311.55130417 293.56614477 -303.82066266 309.84684256 -296.29589844 326.24047852 C-295.34979263 328.25514202 -294.3567187 330.24793929 -293.33691406 332.22631836 C-292 335 -292 335 -292 337 C-288.229245 333.4548599 -285.30340363 329.75909789 -282.515625 325.390625 C-281.89685234 324.43842827 -281.89685234 324.43842827 -281.26557922 323.46699524 C-280.3818557 322.10613347 -279.5007666 320.74355792 -278.62210083 319.37942505 C-276.27562985 315.7378311 -273.90837966 312.10977716 -271.54296875 308.48046875 C-271.06830673 307.75121689 -270.59364471 307.02196503 -270.104599 306.27061462 C-266.00318027 299.97929691 -261.80664333 293.75860853 -257.5625 287.5625 C-248.5555818 274.39762186 -239.71646394 261.12272864 -230.88499451 247.83978271 C-228.7155257 244.57687716 -226.54386511 241.31547505 -224.3671875 238.05737305 C-219.48955102 230.75554499 -214.65338338 223.42984929 -209.875 216.0625 C-204.79922935 208.25818055 -199.67613565 200.48808809 -194.5 192.75 C-187.68118763 182.55217289 -180.92472631 172.31434916 -174.1875 162.0625 C-173.47327881 160.97636414 -173.47327881 160.97636414 -172.74462891 159.86828613 C-163.38343073 145.62991341 -154.09573046 131.34541404 -144.97265625 116.953125 C-141.46060834 111.69548496 -137.78497837 107.80441066 -132.75 104 C-131.49506606 103.03388554 -130.24120214 102.06637995 -128.98828125 101.09765625 C-128.33553223 100.59379395 -127.6827832 100.08993164 -127.01025391 99.57080078 C-123.60913151 96.9131834 -120.27655279 94.1723816 -116.9375 91.4375 C-111.10002699 86.67053318 -105.18817239 82.02380696 -99.19921875 77.44921875 C-89.86776769 70.32082776 -80.71190107 62.97860567 -71.61230469 55.55761719 C-67.57232337 52.26614533 -63.50139889 49.02541465 -59.37109375 45.84765625 C-56.86066551 43.89142469 -54.38050986 41.90063945 -51.90136719 39.9050293 C-45.19708033 34.51009276 -38.42021158 29.22448098 -31.57080078 24.01513672 C-25.39129932 19.31263879 -19.26200192 14.54764164 -13.15112305 9.75634766 C-8.84183319 6.38901961 -4.47329859 3.14657223 0 0 Z " fill="#0BE3D7" transform="translate(806,214)"/>
<path d="M0 0 C4.03698607 1.81003405 7.56972646 4.36012053 11.1875 6.875 C11.88875 7.3596875 12.59 7.844375 13.3125 8.34375 C19.11991356 12.36664749 24.88931928 16.44286068 30.65454102 20.52587891 C35.2873083 23.80306071 39.94358612 27.0427411 44.625 30.25 C58.56548381 39.80122891 72.41640332 49.48231837 86.25 59.1875 C93.48297964 64.26140263 100.75994927 69.26680397 108.06079102 74.24243164 C114.01869066 78.31007646 119.91964228 82.45316733 125.80419922 86.62597656 C131.09503033 90.3735972 136.42682368 94.05728869 141.77685547 97.71972656 C147.14792312 101.40162287 152.48301586 105.13322916 157.8125 108.875 C164.3457836 113.46035209 170.90481188 118.00415428 177.5 122.5 C184.25586538 127.10794464 190.98430749 131.75322155 197.6875 136.4375 C198.50089844 137.0046875 199.31429687 137.571875 200.15234375 138.15625 C200.9309375 138.70152344 201.70953125 139.24679687 202.51171875 139.80859375 C203.18678467 140.28095459 203.86185059 140.75331543 204.55737305 141.23999023 C205.36343994 141.82079346 206.16950684 142.40159668 207 143 C207.62479752 143.40992188 208.24959503 143.81984375 208.89332581 144.2421875 C214.23114012 147.91277999 216.98037928 151.51748843 219.75390625 157.3203125 C220.14448715 158.10139374 220.53506805 158.88247498 220.93748474 159.68722534 C221.75088639 161.32467084 222.55459793 162.96696328 223.34887695 164.61376953 C224.56822531 167.13684682 225.8213999 169.64088003 227.08007812 172.14453125 C227.86922407 173.74378834 228.65640522 175.34401679 229.44140625 176.9453125 C229.81519913 177.69330109 230.188992 178.44128967 230.57411194 179.21194458 C232.35628414 182.94577702 233.31341914 185.04567182 232 189 C230.7254916 186.64776003 229.45534102 184.29333069 228.1875 181.9375 C227.83107422 181.28072266 227.47464844 180.62394531 227.10742188 179.94726562 C225.37138864 176.71410282 223.74752455 173.49614337 222.33984375 170.10546875 C221.24686207 167.04691303 221.24686207 167.04691303 219.375 165.375 C217.4588701 163.4588701 217.35484985 161.6258889 217 159 C214.60236815 161.39763185 214.65719414 162.33273498 214.375 165.625 C214.30023438 166.44226563 214.22546875 167.25953125 214.1484375 168.1015625 C214.09945312 168.72804688 214.05046875 169.35453125 214 170 C213.34 170 212.68 170 212 170 C211.80422363 171.44729492 211.80422363 171.44729492 211.60449219 172.92382812 C207.23526908 205.14722631 207.23526908 205.14722631 205 218.0625 C202.92787817 230.05105415 201.23563313 242.08653748 199.53904724 254.13261414 C199.43463821 254.87389053 199.33022919 255.61516693 199.22265625 256.37890625 C199.11885147 257.11643631 199.01504669 257.85396637 198.90809631 258.61384583 C197.80822687 266.40368079 196.62938059 274.18136405 195.45141602 281.9597168 C194.54359833 288.04535551 193.71813682 294.13541579 192.96875 300.2421875 C192.88218643 300.94106079 192.79562286 301.63993408 192.70643616 302.35998535 C192.28609485 305.7592993 191.87574018 309.15894925 191.48217773 312.56152344 C190.73330808 318.69879763 189.7841981 324.2820908 187.63549805 330.08203125 C186.69076268 332.93329557 186.55141126 335.70008523 186.4375 338.6875 C186.25600636 343.19184209 185.47824479 346.74856797 184 351 C183.96154557 352.99963028 183.95455719 355.00051633 184 357 C183.67 357.66 183.34 358.32 183 359 C182.01 359 181.02 359 180 359 C179.67 358.34 179.34 357.68 179 357 C178.01 356.67 177.02 356.34 176 356 C174.50589752 353.6298275 174.50589752 353.6298275 172.90393066 350.41586304 C172.60694574 349.82687088 172.30996081 349.23787872 172.00397635 348.63103831 C171.00673987 346.64717915 170.02401131 344.65647661 169.04101562 342.66552734 C168.33021925 341.24416123 167.61854828 339.82323219 166.90606689 338.40270996 C164.9667442 334.52979174 163.039934 330.65076673 161.11531258 326.77052641 C159.09076707 322.69386724 157.05518423 318.62272642 155.02087402 314.55093384 C151.59456005 307.68908299 148.17560242 300.82360942 144.76171875 293.95556641 C139.98644319 284.34872103 135.19778146 274.7485973 130.40645313 265.14975047 C126.65356779 257.62988447 122.90482474 250.10795293 119.15625 242.5859375 C118.56375552 241.39729261 118.56375552 241.39729261 117.95929146 240.18463469 C109.57608671 223.36513038 101.21830902 206.53996892 93.17045593 189.55653381 C90.62939316 184.19879021 87.9953869 178.88950659 85.31884766 173.59814453 C80.58230887 164.21398956 75.88596041 154.80949478 71.17925835 145.41034508 C69.52317635 142.10334143 67.86632911 138.7967257 66.20776367 135.4909668 C59.3817795 121.88444728 52.5937415 108.26656204 46.06124878 94.51583862 C40.96730624 83.79846045 35.73392643 73.14990471 30.5012207 62.49975586 C28.8021912 59.04151726 27.1050672 55.58234843 25.40820312 52.12304688 C20.47941987 42.08046154 15.53733992 32.04571532 10.5181427 22.04798889 C8.10471459 17.23227628 5.77019474 12.38464032 3.5 7.5 C3.15453125 6.76136719 2.8090625 6.02273437 2.453125 5.26171875 C1.63352894 3.50869384 0.81644749 1.75449353 0 0 Z " fill="#0BDEE2" transform="translate(214,225)"/>
<path d="M0 0 C3.64720751 3.21147918 5.67610167 6.80582856 7.75 11.125 C8.09071533 11.82294678 8.43143066 12.52089355 8.7824707 13.23999023 C9.86957126 15.48669795 10.93820863 17.7412277 12 20 C12.52762939 21.12124268 12.52762939 21.12124268 13.06591797 22.26513672 C24.2951027 46.33955266 31.05068604 71.60892764 34 98 C34.13148438 99.12921875 34.26296875 100.2584375 34.3984375 101.421875 C37.80941077 137.00662321 32.17744627 172.96568434 22 207 C21.74412109 207.86512207 21.48824219 208.73024414 21.22460938 209.62158203 C8.63246787 251.21053489 -16.72280486 287.75516274 -47.0625 318.3125 C-47.97257813 319.23200439 -48.88265625 320.15150879 -49.8203125 321.09887695 C-58.47259357 329.70991964 -67.77854094 337.32273585 -77.6875 344.4375 C-78.8324292 345.26145264 -78.8324292 345.26145264 -80.00048828 346.10205078 C-86.90271482 351.01876392 -93.99114642 355.57501947 -101.25244141 359.94042969 C-102.80008821 360.87879056 -104.32930147 361.84740696 -105.85546875 362.8203125 C-125.2178051 374.8344606 -147.61130683 381.93075465 -169.48828125 387.78515625 C-170.44903564 388.04304932 -171.40979004 388.30094238 -172.3996582 388.56665039 C-175.01226609 389.00204416 -176.52513376 388.86096585 -179 388 C-178.63938477 387.46850342 -178.27876953 386.93700684 -177.90722656 386.3894043 C-174.60220118 381.48028176 -171.43715476 376.50736405 -168.35888672 371.45336914 C-162.60568564 362.00991298 -156.66607665 352.82336602 -150 344 C-149.57009766 343.42733398 -149.14019531 342.85466797 -148.69726562 342.26464844 C-142.36432402 333.87465645 -135.55537923 326.08701995 -128.34423828 318.44580078 C-126.42721229 316.38393592 -124.5912435 314.2545008 -122.75 312.125 C-119.72099404 308.68920606 -116.49398213 305.70096535 -113 302.74609375 C-110.90129923 300.9138296 -108.95250178 298.9868231 -107 297 C-104.56099918 294.52340379 -102.09257578 292.17969143 -99.4375 289.9375 C-88.99449418 280.91854043 -79.45464384 270.89201864 -71 260 C-70.12292873 258.91127961 -69.24392032 257.82411777 -68.36328125 256.73828125 C-40.10729099 221.69866987 -22.58961947 180.67575459 -17 136 C-16.85534302 134.86800171 -16.85534302 134.86800171 -16.70776367 133.71313477 C-15.83004426 126.05628169 -15.71669255 118.38809433 -15.6875 110.6875 C-15.68257538 109.61858521 -15.68257538 109.61858521 -15.67755127 108.52807617 C-15.65317947 91.9975565 -17.07133178 75.30233505 -21.1953125 59.25 C-22.96196092 51.45193041 -20.85872346 44.67083813 -17.578125 37.59765625 C-17.2362616 36.8350499 -16.89439819 36.07244354 -16.54217529 35.28672791 C-15.45649878 32.87315488 -14.35342003 30.46800405 -13.25 28.0625 C-12.52492959 26.45427696 -11.8009623 24.8455561 -11.078125 23.23632812 C-7.54833673 15.4085 -3.94873529 7.62758435 0 0 Z " fill="#9AA9B8" transform="translate(745,407)"/>
<path d="M0 0 C1 3 1 3 -0.3125 5.6875 C-0.869375 6.450625 -1.42625 7.21375 -2 8 C-2.66 8 -3.32 8 -4 8 C-4.0825 8.804375 -4.165 9.60875 -4.25 10.4375 C-5.20196675 14.95934205 -7.01580179 18.84702701 -9 23 C-9.99 23 -10.98 23 -12 23 C-11.79375 23.5775 -11.5875 24.155 -11.375 24.75 C-10.91338739 27.51967567 -11.57055055 28.64561267 -13 31 C-13.66 31 -14.32 31 -15 31 C-15.185625 32.6396875 -15.185625 32.6396875 -15.375 34.3125 C-16 38 -16 38 -18 41 C-18.66 41 -19.32 41 -20 41 C-20.12632812 41.55558594 -20.25265625 42.11117187 -20.3828125 42.68359375 C-21.05925462 45.22239234 -21.92220819 47.61404663 -22.875 50.0625 C-23.20242188 50.91972656 -23.52984375 51.77695312 -23.8671875 52.66015625 C-25 55 -25 55 -26.515625 56.45703125 C-28.58748838 58.61067871 -29.04183858 60.77160647 -29.875 63.625 C-31.62659269 69.20565579 -33.93814937 74.03076702 -37 79 C-37.66 79 -38.32 79 -39 79 C-38.67 79.99 -38.34 80.98 -38 82 C-38.95495674 83.69287785 -39.9590934 85.35857037 -41 87 C-41.69579454 89.19130534 -41.69579454 89.19130534 -42 91 C-42.66 91 -43.32 91 -44 91 C-44 91.66 -44 92.32 -44 93 C-44.66 93.66 -45.32 94.32 -46 95 C-46.63766761 96.90000358 -46.63766761 96.90000358 -47.0625 99 C-47.55455208 101.21220107 -47.98325137 102.96650273 -49 105 C-49.66 105 -50.32 105 -51 105 C-51.33 106.98 -51.66 108.96 -52 111 C-52.99 111 -53.98 111 -55 111 C-55 112.98 -55 114.96 -55 117 C-55.66 117 -56.32 117 -57 117 C-57.185625 118.0828125 -57.185625 118.0828125 -57.375 119.1875 C-58.000475 122.00213749 -58.7099631 124.4199262 -60 127 C-60.99 127.33 -61.98 127.66 -63 128 C-63 129.32 -63 130.64 -63 132 C-62.34 132.33 -61.68 132.66 -61 133 C-68.69970101 149.20003464 -76.39924565 165.37446132 -84.89971924 181.17207336 C-87.1053997 185.28560067 -89.2404613 189.42638144 -91.3203125 193.60546875 C-91.65064484 194.26818283 -91.98097717 194.93089691 -92.32131958 195.61369324 C-93.09503364 197.16598487 -93.86830438 198.7184975 -94.64123535 200.2711792 C-99.04548079 209.1162699 -103.45908768 217.95670492 -107.87266159 226.79714394 C-109.53874113 230.1344916 -111.20405357 233.47221764 -112.86767578 236.81079102 C-119.77811115 250.67742803 -126.7025397 264.52942451 -133.99023438 278.203125 C-136.76576324 283.41578545 -139.39719049 288.69915624 -142 294 C-145.51378644 292.82873785 -145.93321423 291.74457245 -147.57211304 288.57467651 C-147.89249542 287.9299942 -148.21287781 287.28531189 -148.54296875 286.62109375 C-148.89573883 285.93081085 -149.24850891 285.24052795 -149.61196899 284.52932739 C-150.81382789 282.17032798 -152.00072994 279.80412247 -153.1875 277.4375 C-154.04388864 275.74634609 -154.90092439 274.05551975 -155.75854492 272.36499023 C-158.26470764 267.41529161 -160.75502392 262.45774052 -163.24304199 257.49890137 C-165.14616085 253.70892736 -167.05363592 249.92116689 -168.96191406 246.13378906 C-172.89551991 238.32548089 -176.82019903 230.51271594 -180.74078751 222.69786453 C-181.8046217 220.57819735 -182.86954125 218.45907838 -183.93466187 216.34005737 C-198.55903933 187.2327893 -198.55903933 187.2327893 -204 174 C-201.07850903 171.01145841 -198.76543731 168.7719705 -195 167 C-193.16825103 165.74170397 -191.37583454 164.43811406 -189.5859375 163.12109375 C-188 162 -188 162 -186 161 C-185.71125 160.38640625 -185.4225 159.7728125 -185.125 159.140625 C-183.78030505 156.58196933 -182.32568642 155.44296291 -180 153.75 C-179.29875 153.22921875 -178.5975 152.7084375 -177.875 152.171875 C-176 151 -176 151 -174 151 C-173.773125 150.4225 -173.54625 149.845 -173.3125 149.25 C-171.65948561 146.41626105 -169.60357787 144.96855887 -167 143 C-166.54238281 142.53464844 -166.08476562 142.06929687 -165.61328125 141.58984375 C-163.73811314 139.74191779 -161.72652359 138.21010824 -159.625 136.625 C-157.07632972 134.66951943 -154.80974291 132.80486453 -152.5625 130.5 C-149.37217418 127.38748701 -145.83264155 125.08288101 -142.109375 122.6484375 C-139.72581634 121.09875245 -139.72581634 121.09875245 -139 118 C-137.5390625 116.7109375 -137.5390625 116.7109375 -135.625 115.375 C-131.13700801 112.14041118 -126.87996009 108.66798445 -122.61328125 105.1484375 C-118.91767806 102.11019871 -115.21871755 99.13731436 -111.3125 96.375 C-107.92357072 93.85878371 -105.01170036 91.08039291 -102.0625 88.0625 C-98.29980943 84.21337702 -94.43769847 80.86312997 -90.140625 77.6328125 C-84.69687295 73.48046148 -79.7272072 68.75009299 -74.6875 64.125 C-70.14959482 59.98196778 -65.46855965 56.07619586 -60.6875 52.21875 C-58.0330038 50.02724732 -55.47999115 47.75752317 -52.9375 45.4375 C-48.90835717 41.76536983 -44.73418064 38.35280975 -40.453125 34.98046875 C-37.19474226 32.34989542 -34.09235729 29.5621334 -30.9765625 26.765625 C-24.52212389 21 -24.52212389 21 -22 21 C-21.78988281 20.43152344 -21.57976562 19.86304688 -21.36328125 19.27734375 C-19.50379777 16.17110058 -17.12850997 14.6549325 -14.1875 12.5625 C-10.08479729 9.63199806 -6.48652463 6.64555909 -3 3 C-2 2 -1 1 0 0 Z " fill="#6DE284" transform="translate(655,529)"/>
<path d="M0 0 C0.66 0.33 1.32 0.66 2 1 C2.40729228 3.32156597 2.74438677 5.6568787 3 8 C3.99 8.33 4.98 8.66 6 9 C6.7764155 10.65066352 7.54016123 12.30984647 8.20556641 14.00830078 C9.49831986 17.24932188 11.11098474 20.3272559 12.6875 23.4375 C13.00783203 24.07365234 13.32816406 24.70980469 13.65820312 25.36523438 C14.43694422 26.91109357 15.21820334 28.45568387 16 30 C16.66 29.67 17.32 29.34 18 29 C18.39771606 29.84087158 18.39771606 29.84087158 18.8034668 30.69873047 C24.24930887 42.19383202 29.78447918 53.63634026 35.5 65 C39.99717451 73.9475378 44.40244236 82.93066609 48.69970703 91.97583008 C51.29767764 97.44311076 53.91538813 102.90008797 56.5625 108.34375 C63.43318187 122.47722678 70.21891316 136.64040775 76.78857422 150.91674805 C77.28502441 151.99480713 77.78147461 153.07286621 78.29296875 154.18359375 C78.75364746 155.18890137 79.21432617 156.19420898 79.68896484 157.22998047 C80.8635683 159.71174039 82.12430365 162.11860336 83.42578125 164.53515625 C85.0617076 168.13581796 85.21698188 168.54531349 84 172 C83.07820497 173.63780707 82.08988913 175.23878159 81.0625 176.8125 C80.11890625 178.26269531 80.11890625 178.26269531 79.15625 179.7421875 C75.51871248 185.23803224 71.87211813 190.72740381 68.20361328 196.20263672 C66.46494216 198.79900524 64.73249502 201.39950748 63 204 C62.34644531 204.9796875 61.69289063 205.959375 61.01953125 206.96875 C59.66036088 209.00882004 58.30363305 211.05051928 56.94921875 213.09375 C50.77621893 222.39702987 44.50700854 231.63438068 38.23028564 240.86782837 C33.64097329 247.61917192 29.06271024 254.37626809 24.5625 261.1875 C19.60177444 268.6896166 14.39151117 276.01491103 9.16992188 283.33691406 C8.08852641 284.87415653 7.04256054 286.43615919 6 288 C6.66 288.33 7.32 288.66 8 289 C7.34 289.66 6.68 290.32 6 291 C2.4063369 283.83622183 -1.18493638 276.67125218 -4.77345753 269.50489712 C-6.44122108 266.17450866 -8.10969711 262.84448187 -9.7800293 259.51538086 C-17.60940285 243.90943498 -25.33252289 228.2662283 -32.8008728 212.48318481 C-34.49940569 208.96581727 -36.28334955 205.49299977 -38.07722473 202.02342224 C-39 200 -39 200 -39 198 C-38.01 198.33 -37.02 198.66 -36 199 C-36 199.66 -36 200.32 -36 201 C-35.01 201 -34.02 201 -33 201 C-33.02320313 200.41992188 -33.04640625 199.83984375 -33.0703125 199.2421875 C-33.18508798 194.27404876 -32.5769674 190.73090219 -31 186 C-30.73310761 183.09754525 -30.56323325 180.20502713 -30.44140625 177.29296875 C-30.06827895 174.50937302 -29.52095357 172.50764925 -28.5703125 169.91015625 C-26.55565472 164.13400329 -25.99342678 158.30544273 -25.3125 152.25 C-24.9807101 149.49788473 -24.64487586 146.74666368 -24.30078125 143.99609375 C-24.15867722 142.85994881 -24.15867722 142.85994881 -24.01370239 141.70085144 C-22.54816501 130.20914859 -20.74891517 118.7637184 -19 107.3125 C-18.29652835 102.69927154 -17.59342844 98.08598655 -16.890625 93.47265625 C-16.72288071 92.37233063 -16.55513641 91.272005 -16.38230896 90.13833618 C-14.95928757 80.78226425 -13.61353642 71.41737899 -12.30126953 62.04516602 C-11.10336303 53.55539108 -9.75327357 45.09373793 -8.36279297 36.63354492 C-7.18196335 29.37894856 -6.2393466 22.12789172 -5.4921875 14.81640625 C-5 12 -5 12 -3 10 C-2.61550947 8.09255184 -2.61550947 8.09255184 -2.5 6 C-2.22222222 2.22222222 -2.22222222 2.22222222 0 0 Z " fill="#03B7C2" transform="translate(430,383)"/>
<path d="M0 0 C1.27937342 3.68078813 0.75745334 6.52722953 0.07421875 10.3203125 C-0.14556641 11.57972656 -0.36535156 12.83914063 -0.59179688 14.13671875 C-0.83129986 15.46627779 -1.07153481 16.79570519 -1.3125 18.125 C-4.45513112 35.65568869 -6.39730099 52.7968388 -6.3125 70.625 C-6.30926727 71.86207703 -6.30926727 71.86207703 -6.30596924 73.12414551 C-6.24843678 86.92594952 -5.55410842 100.40585046 -3 114 C-2.70996094 115.55170898 -2.70996094 115.55170898 -2.4140625 117.13476562 C7.79674462 169.66999856 36.34223802 218.24390477 79 251 C79.51127441 251.4036377 80.02254883 251.80727539 80.54931641 252.22314453 C100.89661159 268.24564687 124.68733205 281.35602508 149.44140625 289.0703125 C150.99976196 289.56362061 150.99976196 289.56362061 152.58959961 290.06689453 C154.54108014 290.66679468 156.50412285 291.2308929 158.47875977 291.74951172 C166.56222699 294.19682019 169.09660118 298.80795444 173 306 C174.01242012 307.66456683 175.02520407 309.32897193 176.05249023 310.98440552 C177.1346418 312.72887117 178.20297039 314.48110773 179.26757812 316.23632812 C180.70767326 318.61032868 182.15051091 320.98261479 183.59570312 323.35351562 C187.31477373 329.46900478 190.97050897 335.6172776 194.53515625 341.82421875 C194.8836412 342.42869339 195.23212616 343.03316803 195.59117126 343.65596008 C198 347.87873393 198 347.87873393 198 349 C190.03457907 348.49171779 182.36379487 347.4912018 174.5625 345.8125 C173.52899414 345.59182861 172.49548828 345.37115723 171.43066406 345.14379883 C115.50894673 332.90825024 62.02601568 302.13220776 26.34570312 256.70507812 C24.79088527 254.73504041 23.2150509 252.78252407 21.640625 250.828125 C14.27136153 241.6090586 7.6590922 232.35528023 2 222 C1.53352051 221.15840332 1.06704102 220.31680664 0.58642578 219.44970703 C-10.83800691 198.71838024 -18.60626036 178.02660699 -24 155 C-24.16870605 154.30213379 -24.33741211 153.60426758 -24.51123047 152.88525391 C-32.64579245 118.86719871 -30.97875965 81.39540213 -21 48 C-20.7632959 47.2073877 -20.5265918 46.41477539 -20.28271484 45.59814453 C-15.49368107 30.01718911 -9.0629106 13.59436589 0 0 Z " fill="#94A4B4" transform="translate(273,452)"/>
<path d="M0 0 C-1.65210456 4.87036605 -4.37084526 8.86999311 -7.1875 13.125 C-8.17741303 14.63650288 -9.16699586 16.14822206 -10.15625 17.66015625 C-10.63964844 18.39637207 -11.12304688 19.13258789 -11.62109375 19.89111328 C-14.45927938 24.23180865 -17.226719 28.61764811 -20 33 C-24.72728596 31.56726872 -29.0044159 29.57806809 -33.375 27.3125 C-51.39518372 18.18496202 -69.84795624 11.07210695 -89.5 6.25 C-90.24403076 6.06356934 -90.98806152 5.87713867 -91.75463867 5.68505859 C-109.00957254 1.66893267 -126.21125884 0.47897935 -143.875 0.625 C-144.88324829 0.62965271 -145.89149658 0.63430542 -146.93029785 0.63909912 C-167.95704792 0.75276398 -187.24610672 2.9905223 -207.66699219 8.10595703 C-209.23175293 8.49436768 -209.23175293 8.49436768 -210.828125 8.890625 C-212.2188623 9.24688965 -212.2188623 9.24688965 -213.63769531 9.61035156 C-216 10 -216 10 -219 9 C-194.6880886 -7.87861435 -167.87772506 -17.40281596 -139 -23 C-138.24509277 -23.14695312 -137.49018555 -23.29390625 -136.71240234 -23.4453125 C-94.53926719 -31.1373323 -36.17410063 -24.11606709 0 0 Z " fill="#A5B1C0" transform="translate(643,312)"/>
<path d="M0 0 C0.99 0.495 0.99 0.495 2 1 C-1.37430236 7.77435429 -4.75199103 14.54701283 -8.13183594 21.31860352 C-9.27678799 23.61347871 -10.42101656 25.90871503 -11.56445312 28.2043457 C-17.88601838 40.8946107 -24.26112099 53.54537974 -30.91992188 66.0625 C-33.71502818 71.32416756 -36.37404549 76.65201946 -39 82 C-42.73979783 80.75340072 -43.23974059 79.14156728 -44.98045349 75.75796509 C-45.53733604 74.63833878 -45.53733604 74.63833878 -46.10546875 73.49609375 C-46.50230362 72.71777191 -46.89913849 71.93945007 -47.30799866 71.13754272 C-48.6109883 68.57570953 -49.89954187 66.00691891 -51.1875 63.4375 C-52.08036302 61.67176922 -52.97392318 59.90639079 -53.86816406 58.14135742 C-55.69373344 54.53362596 -57.51296564 50.92279513 -59.32763672 47.30957031 C-61.43969223 43.10683655 -63.56881032 38.91316384 -65.70796204 34.72416687 C-67.20957963 31.78172901 -68.70411159 28.83573621 -70.19668579 25.88870239 C-70.89648263 24.50932303 -71.59859663 23.13111668 -72.30307007 21.75411987 C-73.27756694 19.84642257 -74.24166779 17.93382577 -75.203125 16.01953125 C-75.74614258 14.94807861 -76.28916016 13.87662598 -76.84863281 12.77270508 C-78 10 -78 10 -78 6 C-77.34 6 -76.68 6 -76 6 C-75.8453125 6.928125 -75.8453125 6.928125 -75.6875 7.875 C-75.12474627 10.36526484 -75.12474627 10.36526484 -72 12 C-71.3125 14.625 -71.3125 14.625 -71 17 C-70.34 17 -69.68 17 -69 17 C-68 20 -68 20 -68 22 C-67.67156616 24.06381575 -67.67156616 24.06381575 -67 26 C-66.34 26.33 -65.68 26.66 -65 27 C-64.690625 28.155 -64.38125 29.31 -64.0625 30.5 C-63.711875 31.655 -63.36125 32.81 -63 34 C-62.01 34.33 -61.02 34.66 -60 35 C-59.87625 36.546875 -59.87625 36.546875 -59.75 38.125 C-58.76983464 43.1891877 -56.61593269 46.38406731 -53 50 C-53.33 50.99 -53.66 51.98 -54 53 C-53.34 53 -52.68 53 -52 53 C-52 54.65 -52 56.3 -52 58 C-51.34 58.33 -50.68 58.66 -50 59 C-48.93988057 60.96879323 -47.95723017 62.97918076 -47 65 C-45.66480302 67.61043002 -44.32792296 70.219973 -42.98828125 72.828125 C-42 75 -42 75 -42 77 C-40.02 76.505 -40.02 76.505 -38 76 C-37.89042969 75.39671875 -37.78085937 74.7934375 -37.66796875 74.171875 C-36.77067374 69.64892454 -35.99044664 66.58853596 -33 63 C-32.505 61.845 -32.01 60.69 -31.5 59.5 C-30 56 -30 56 -28.5 54.125 C-26.48454724 51.26977526 -25.71298433 48.26346569 -24.74609375 44.92578125 C-24 43 -24 43 -22 42 C-21.27840576 40.35636866 -20.60648579 38.68949614 -20 37 C-19.34 37 -18.68 37 -18 37 C-17.34 33.7 -16.68 30.4 -16 27 C-15.01 27 -14.02 27 -13 27 C-12.896875 26.29875 -12.79375 25.5975 -12.6875 24.875 C-11.90591613 21.60655835 -10.4996691 18.9993382 -9 16 C-8.30092586 13.26427415 -8.30092586 13.26427415 -8 11 C-7.01 11 -6.02 11 -5 11 C-4.731875 9.9275 -4.46375 8.855 -4.1875 7.75 C-3.13772173 4.43491072 -2.25387672 2.56122354 0 0 Z " fill="#F1D02B" transform="translate(552,741)"/>
<path d="M0 0 C0.66 0 1.32 0 2 0 C0.70900564 4.09775104 -0.81449987 7.90852905 -2.6953125 11.76953125 C-3.23841064 12.88924316 -3.78150879 14.00895508 -4.34106445 15.16259766 C-4.93567552 16.37924844 -5.53032171 17.59588207 -6.125 18.8125 C-6.74540064 20.08885268 -7.36542848 21.36538662 -7.98510742 22.64208984 C-9.30144849 25.35267238 -10.61985058 28.06223778 -11.93994141 30.77099609 C-15.06142504 37.17682498 -18.17153849 43.58817268 -21.28143311 49.99963379 C-21.96925466 51.41745904 -22.65728391 52.83518355 -23.34552002 54.25280762 C-27.27036105 62.33733921 -31.17294849 70.43108288 -35 78.5625 C-38.11402022 85.17317728 -41.31697033 91.73035434 -44.6171875 98.25 C-46.2967322 101.57606885 -47.9404564 104.91855095 -49.57200623 108.26841736 C-50.82929203 110.84676656 -52.09469212 113.42109586 -53.36074829 115.99514771 C-53.99332792 117.28612778 -54.62240282 118.5788313 -55.24789429 119.8732605 C-56.13126867 121.69995935 -57.02826578 123.52005118 -57.92578125 125.33984375 C-58.44567627 126.40581787 -58.96557129 127.47179199 -59.5012207 128.57006836 C-61 131 -61 131 -64 132 C-64.33 130.68 -64.66 129.36 -65 128 C-64.37609375 127.93941406 -63.7521875 127.87882813 -63.109375 127.81640625 C-60.76632566 127.19151441 -60.76632566 127.19151441 -59.953125 124.71484375 C-59.72109375 123.79832031 -59.4890625 122.88179687 -59.25 121.9375 C-59.00765625 121.01839844 -58.7653125 120.09929687 -58.515625 119.15234375 C-58.34546875 118.44207031 -58.1753125 117.73179687 -58 117 C-57.34 117 -56.68 117 -56 117 C-56 115.02 -56 113.04 -56 111 C-55.0409375 110.690625 -55.0409375 110.690625 -54.0625 110.375 C-51.66547511 109.11815733 -51.66547511 109.11815733 -51.3125 106 C-51.209375 105.01 -51.10625 104.02 -51 103 C-50.505 102.01 -50.505 102.01 -50 101 C-49.34 101 -48.68 101 -48 101 C-48 98.36 -48 95.72 -48 93 C-47.01 93 -46.02 93 -45 93 C-45 92.34 -45 91.68 -45 91 C-44.34 91 -43.68 91 -43 91 C-42.87625 90.278125 -42.7525 89.55625 -42.625 88.8125 C-42.00947074 86.04261834 -41.06330025 83.62280727 -40 81 C-40 80.34 -40 79.68 -40 79 C-39.01 78.505 -39.01 78.505 -38 78 C-35.0363283 73.15835812 -32.91658484 68.09436318 -31.4375 62.625 C-30.32993257 58.58894921 -29.01261395 56.91846977 -26 54 C-25.09093415 51.76903563 -24.38405885 49.53111983 -23.7109375 47.21875 C-23.00149307 45.00465968 -22.09004958 43.04966588 -21 41 C-20.34 41 -19.68 41 -19 41 C-18.01 37.7 -17.02 34.4 -16 31 C-15.34 31 -14.68 31 -14 31 C-13.67 28.36 -13.34 25.72 -13 23 C-12.01 23 -11.02 23 -10 23 C-9.80664062 22.41992188 -9.61328125 21.83984375 -9.4140625 21.2421875 C-8.87565065 19.62695194 -8.33519761 18.0123957 -7.79296875 16.3984375 C-7.14596483 14.44148969 -6.53622048 12.47225571 -5.9375 10.5 C-5 8 -5 8 -3 7 C-1.94647157 4.69034152 -0.94280904 2.3570226 0 0 Z " fill="#42E0B5" transform="translate(656,529)"/>
<path d="M0 0 C0.66 0.66 1.32 1.32 2 2 C0.98679687 2.65355469 0.98679687 2.65355469 -0.046875 3.3203125 C-5.92226428 7.05545067 -5.92226428 7.05545067 -10.3125 12.3125 C-12.32943853 15.52466136 -13.51681519 15.75600542 -17 17 C-19.11140052 18.56233655 -21.02862454 20.25785425 -23 22 C-23.66 21.67 -24.32 21.34 -25 21 C-21.49076517 16.23746702 -21.49076517 16.23746702 -19.0625 15.0625 C-15.91853974 13.44288411 -14.20699273 10.71629874 -12 8 C-9 6 -9 6 -6 6 C-6 5.34 -6 4.68 -6 4 C-4.36368108 2.95107762 -2.69514137 1.95093297 -1 1 C-0.67 0.67 -0.34 0.34 0 0 Z M-25 22 C-27.9863544 28.39933085 -33.97356802 32.68701697 -39.75 36.5625 C-42.77461283 38.65076276 -44.17926012 40.79202973 -46 44 C-47.9375 45.125 -47.9375 45.125 -50 46 C-50.66 46.495 -51.32 46.99 -52 47.5 C-54 49 -54 49 -55.9375 49.9375 C-58.58067793 51.29913711 -60.70091057 53.12512476 -63 55 C-64.58475045 52.00074658 -66.16753521 49.00045992 -67.75 46 C-68.1934375 45.16082031 -68.636875 44.32164062 -69.09375 43.45703125 C-69.97682026 41.78179501 -70.85640015 40.10471409 -71.73242188 38.42578125 C-72.55275799 36.85589304 -73.38165115 35.29043418 -74.22070312 33.73046875 C-76.10025502 30.15699972 -77 28.1154836 -77 24 C-76.01 24.33 -75.02 24.66 -74 25 C-73.12109375 26.8125 -73.12109375 26.8125 -72.4375 29 C-71.79318716 31.14541038 -71.79318716 31.14541038 -71 33 C-70.34 33.33 -69.68 33.66 -69 34 C-67.96898053 36.31979381 -66.97063483 38.65429915 -66 41 C-65.34 41.99 -64.68 42.98 -64 44 C-64 45.32 -64 46.64 -64 48 C-63.67 48.66 -63.34 49.32 -63 50 C-60.70223864 48.89367046 -58.54671169 47.71939295 -56.375 46.375 C-54 45 -54 45 -52 45 C-51.7525 44.443125 -51.505 43.88625 -51.25 43.3125 C-48.62020989 38.4473883 -45.75324963 35.71614265 -41 33 C-36.54503384 29.77272741 -36.54503384 29.77272741 -34 25 C-32.35 25 -30.7 25 -29 25 C-29 24.34 -29 23.68 -29 23 C-27 22 -27 22 -25 22 Z " fill="#30DEA9" transform="translate(514,648)"/>
<path d="M0 0 C4.03698607 1.81003405 7.56972646 4.36012053 11.1875 6.875 C11.88875 7.3596875 12.59 7.844375 13.3125 8.34375 C19.11991356 12.36664749 24.88931928 16.44286068 30.65454102 20.52587891 C35.2873083 23.80306071 39.94358612 27.0427411 44.625 30.25 C53.15086389 36.09143842 61.63701792 41.9891964 70.11328125 47.90234375 C74.03770363 50.63920632 77.9732148 53.35893917 81.91796875 56.06640625 C82.84770508 56.70795654 83.77744141 57.34950684 84.73535156 58.01049805 C86.5057901 59.23211343 88.27976537 60.44862258 90.05761719 61.65942383 C90.84168945 62.20236084 91.62576172 62.74529785 92.43359375 63.3046875 C93.12509521 63.77890137 93.81659668 64.25311523 94.52905273 64.74169922 C95.25717163 65.36455811 95.25717163 65.36455811 96 66 C96 66.66 96 67.32 96 68 C91.66406743 66.51431733 88.21856153 64.19508093 84.5625 61.5 C83.96211914 61.06510254 83.36173828 60.63020508 82.74316406 60.18212891 C80.82530061 58.79279874 78.91231118 57.39696034 77 56 C74.42100231 54.1189384 71.83695158 52.24510178 69.25 50.375 C68.65388916 49.93736328 68.05777832 49.49972656 67.44360352 49.04882812 C64.52071066 46.73060765 64.52071066 46.73060765 61 46 C59.32902487 44.33765297 57.66309397 42.67023172 56 41 C54.1395122 39.65792252 52.24160508 38.36642676 50.3125 37.125 C46.35763379 34.55166147 42.46214635 31.93329459 38.625 29.1875 C35.98879835 27.31896027 33.60089778 25.804214 30.6875 24.375 C27.48254918 22.73525772 25.5356917 20.5356917 23 18 C19.83354526 16.20679176 19.83354526 16.20679176 17 15 C17 14.34 17 13.68 17 13 C15.9171875 12.62875 15.9171875 12.62875 14.8125 12.25 C12 11 12 11 9.4375 8.875 C6.98412212 6.59352616 6.98412212 6.59352616 3 7 C2.01 4.69 1.02 2.38 0 0 Z " fill="#1CEFEB" transform="translate(214,225)"/>
<path d="M0 0 C0.495 0.99 0.495 0.99 1 2 C0.19555664 4.15478516 0.19555664 4.15478516 -1.08984375 6.7890625 C-1.54423828 7.73007813 -1.99863281 8.67109375 -2.46679688 9.640625 C-2.95212891 10.62546875 -3.43746094 11.6103125 -3.9375 12.625 C-4.41896484 13.61757812 -4.90042969 14.61015625 -5.39648438 15.6328125 C-6.59064111 18.09206598 -7.7920631 20.54749335 -9 23 C-10.11657408 19.23318395 -9.69671012 17.50619234 -8.125 13.875 C-7.75632812 13.00617188 -7.38765625 12.13734375 -7.0078125 11.2421875 C-6.36643873 9.81525516 -5.69964222 8.39928445 -5 7 C-6.50571657 8.11733729 -8.00444292 9.24410035 -9.5 10.375 C-10.3353125 11.00148437 -11.170625 11.62796875 -12.03125 12.2734375 C-12.6809375 12.84320313 -13.330625 13.41296875 -14 14 C-14 14.66 -14 15.32 -14 16 C-15.72940064 17.08955258 -17.51207969 18.09480268 -19.3125 19.0625 C-30.12319612 24.99759748 -30.12319612 24.99759748 -38 34 C-40.62581138 35.57548683 -41.87099787 36 -45 36 C-45 36.66 -45 37.32 -45 38 C-45.78375 38.2475 -46.5675 38.495 -47.375 38.75 C-50.42295608 40.20140766 -50.72536664 40.99550707 -52 44 C-53.5 45.75 -53.5 45.75 -55 47 C-55.66 47 -56.32 47 -57 47 C-56.44239454 43.52346739 -55.49270316 42.22068216 -52.67578125 40.15234375 C-51.98427979 39.63551025 -51.29277832 39.11867676 -50.58032227 38.58618164 C-49.83194092 38.0421167 -49.08355957 37.49805176 -48.3125 36.9375 C-46.7441626 35.76907307 -45.17646249 34.59979027 -43.609375 33.4296875 C-42.82626953 32.84928711 -42.04316406 32.26888672 -41.23632812 31.67089844 C-38.13579784 29.35430136 -35.09544266 26.96649763 -32.0625 24.5625 C-30.93778179 23.67542386 -29.81277441 22.78871424 -28.6875 21.90234375 C-28.10484375 21.44327637 -27.5221875 20.98420898 -26.921875 20.51123047 C-23.1428293 17.53964855 -19.35363496 14.5811343 -15.5625 11.625 C-14.81685791 11.04177979 -14.07121582 10.45855957 -13.30297852 9.85766602 C-8.94133811 6.45994569 -4.52197427 3.18146807 0 0 Z " fill="#1AEFEA" transform="translate(806,214)"/>
<path d="M0 0 C0.66 0 1.32 0 2 0 C2.103125 0.61875 2.20625 1.2375 2.3125 1.875 C2.87525373 4.36526484 2.87525373 4.36526484 6 6 C6.6875 8.625 6.6875 8.625 7 11 C7.66 11 8.32 11 9 11 C10 14 10 14 10 16 C10.32843384 18.06381575 10.32843384 18.06381575 11 20 C11.66 20.33 12.32 20.66 13 21 C13.309375 22.155 13.61875 23.31 13.9375 24.5 C14.288125 25.655 14.63875 26.81 15 28 C15.99 28.33 16.98 28.66 18 29 C18.12375 30.546875 18.12375 30.546875 18.25 32.125 C19.23016536 37.1891877 21.38406731 40.38406731 25 44 C24.67 44.99 24.34 45.98 24 47 C24.66 47 25.32 47 26 47 C26 48.65 26 50.3 26 52 C26.66 52.33 27.32 52.66 28 53 C31 58.30769231 31 58.30769231 31 62 C30.34 62 29.68 62 29 62 C28.55011719 61.09733398 28.10023438 60.19466797 27.63671875 59.26464844 C24.11462396 52.20576013 20.57675602 45.15533573 17.00830078 38.11975098 C15.14230263 34.43830721 13.28300368 30.75349863 11.42431641 27.06835938 C10.46320856 25.16657175 9.4992738 23.26621048 8.53271484 21.3671875 C7.1184964 18.5870433 5.71452711 15.80193284 4.3125 13.015625 C3.87824707 12.16776428 3.44399414 11.31990356 2.99658203 10.4463501 C2.60196777 9.65742371 2.20735352 8.86849731 1.80078125 8.05566406 C1.45184814 7.3666803 1.10291504 6.67769653 0.7434082 5.96783447 C0 4 0 4 0 0 Z " fill="#F6CA24" transform="translate(474,747)"/>
<path d="M0 0 C0.66 0 1.32 0 2 0 C0.68818847 4.17613394 -0.8829763 8.04744952 -2.80078125 11.98046875 C-3.35975098 13.13248779 -3.9187207 14.28450684 -4.49462891 15.47143555 C-5.10030009 16.71026349 -5.70626383 17.94894844 -6.3125 19.1875 C-7.57800104 21.78067652 -8.84191112 24.37462607 -10.10546875 26.96875 C-10.42757324 27.62908737 -10.74967773 28.28942474 -11.08154297 28.96977234 C-13.32262347 33.5748419 -15.51048944 38.20264102 -17.67578125 42.84375 C-18.26160346 44.09107057 -18.84777855 45.33822547 -19.43432617 46.58520508 C-20.54436333 48.95034563 -21.6451058 51.31987527 -22.7355957 53.6940918 C-23.48909302 55.28991089 -23.48909302 55.28991089 -24.2578125 56.91796875 C-24.6923877 57.85406982 -25.12696289 58.7901709 -25.57470703 59.75463867 C-27.14879645 62.2344092 -28.28421383 62.98656578 -31 64 C-30.49833887 58.48172757 -30.49833887 58.48172757 -28.125 56.1875 C-25.44592792 53.42963168 -24.77036243 50.85818624 -23.7109375 47.21875 C-23.00149307 45.00465968 -22.09004958 43.04966588 -21 41 C-20.34 41 -19.68 41 -19 41 C-18.01 37.7 -17.02 34.4 -16 31 C-15.34 31 -14.68 31 -14 31 C-13.67 28.36 -13.34 25.72 -13 23 C-12.01 23 -11.02 23 -10 23 C-9.80664062 22.41992188 -9.61328125 21.83984375 -9.4140625 21.2421875 C-8.87565065 19.62695194 -8.33519761 18.0123957 -7.79296875 16.3984375 C-7.14596483 14.44148969 -6.53622048 12.47225571 -5.9375 10.5 C-5 8 -5 8 -3 7 C-1.94647157 4.69034152 -0.94280904 2.3570226 0 0 Z " fill="#36E4C0" transform="translate(656,529)"/>
<path d="M0 0 C0.66 0.33 1.32 0.66 2 1 C1.98952637 2.2689209 1.97905273 3.5378418 1.96826172 4.84521484 C1.93151833 9.64254837 1.90890602 14.43987002 1.89013672 19.23730469 C1.88020094 21.29689641 1.8666477 23.35647451 1.84912109 25.41601562 C1.75147188 37.20284953 2.00941085 48.71151291 3.56689453 60.40478516 C3.9189377 63.3271007 4.09054077 66.06491052 4 69 C2 68 2 68 1 65 C0.34 64.34 -0.32 63.68 -1 63 C-0.69728039 61.65938457 -0.36162029 60.32594105 0 59 C-0.495 57.515 -0.495 57.515 -1 56 C-1.11911333 54.45758705 -1.18639382 52.9108718 -1.22119141 51.36425781 C-1.24436432 50.42608215 -1.26753723 49.48790649 -1.29141235 48.52130127 C-1.32118668 47.00255402 -1.32118668 47.00255402 -1.3515625 45.453125 C-1.37471527 44.4085614 -1.39786804 43.3639978 -1.42172241 42.28778076 C-1.46936622 40.07536665 -1.51459975 37.86289953 -1.55761719 35.65039062 C-1.6244624 32.27712946 -1.70234946 28.90424812 -1.78125 25.53125 C-1.82619248 23.38022226 -1.87048431 21.22918081 -1.9140625 19.078125 C-1.93796051 18.07372375 -1.96185852 17.06932251 -1.98648071 16.03448486 C-2.07760342 10.89842829 -1.99881331 6.04817249 -1 1 C-0.67 0.67 -0.34 0.34 0 0 Z " fill="#A6B2C0" transform="translate(265,496)"/>
<path d="M0 0 C0.66 0 1.32 0 2 0 C2.29132813 0.969375 2.58265625 1.93875 2.8828125 2.9375 C9.51973859 24.77326224 17.45618495 47.03963413 31.09082031 65.57250977 C32.12803088 67.00171873 33.0740163 68.4963384 34 70 C33.505 71.485 33.505 71.485 33 73 C32.68546875 72.45730469 32.3709375 71.91460938 32.046875 71.35546875 C29.46758917 66.90068867 29.46758917 66.90068867 25.8125 63.375 C23.1796788 61.37768736 23.01275289 59.15078677 22 56 C21.09221631 54.23440236 20.15102115 52.4858091 19.1875 50.75 C18.38699219 49.30560547 18.38699219 49.30560547 17.5703125 47.83203125 C17.05210937 46.89746094 16.53390625 45.96289062 16 45 C11.82548413 37.36400668 8.73187196 29.38956679 5.6484375 21.26953125 C4.60277291 18.52138533 3.50525179 15.80940184 2.33203125 13.11328125 C0.41393166 8.63021564 -0.1386364 4.85227396 0 0 Z " fill="#A6B1BD" transform="translate(272,584)"/>
<path d="M0 0 C0.66 0.33 1.32 0.66 2 1 C1.73896484 1.49177734 1.47792969 1.98355469 1.20898438 2.49023438 C-3.73243693 11.81056843 -8.61244458 21.15118288 -13.29296875 30.60546875 C-15.71911049 35.48782836 -18.27267985 40.2796382 -21 45 C-21.66 45 -22.32 45 -23 45 C-23.1875 42.625 -23.1875 42.625 -23 40 C-22.01 39.34 -21.02 38.68 -20 38 C-20.33 36.02 -20.66 34.04 -21 32 C-20.236875 31.814375 -19.47375 31.62875 -18.6875 31.4375 C-13.65919341 28.74794066 -12.88598061 22.72205268 -11.3125 17.5625 C-10.87087562 16.04285919 -10.43191634 14.52242851 -10 13 C-9.01 13.33 -8.02 13.66 -7 14 C-7.04125 13.05125 -7.0825 12.1025 -7.125 11.125 C-7 8 -7 8 -5 6 C-4.67 5.34 -4.34 4.68 -4 4 C-3.34 4.33 -2.68 4.66 -2 5 C-1.34 3.35 -0.68 1.7 0 0 Z " fill="#A8E37C" transform="translate(575,696)"/>
<path d="M0 0 C2.72256477 2.41227247 4.14284243 4.92482982 5.75 8.171875 C6.53165527 9.74183228 6.53165527 9.74183228 7.32910156 11.34350586 C7.88049805 12.46764893 8.43189453 13.59179199 9 14.75 C9.56944336 15.90056885 10.13888672 17.0511377 10.72558594 18.23657227 C15.53717464 27.98731956 20.27641483 37.77369756 24.953125 47.58984375 C25.32598633 48.37222412 25.69884766 49.15460449 26.08300781 49.96069336 C27 52 27 52 28 55 C27.01 55 26.02 55 25 55 C22 49.375 22 49.375 22 46 C20.68 45.34 19.36 44.68 18 44 C18.33 43.01 18.66 42.02 19 41 C17.515 40.505 17.515 40.505 16 40 C16.33 39.34 16.66 38.68 17 38 C16.0337499 35.98347806 15.03291676 33.98320018 14 32 C14 31.34 14 30.68 14 30 C13.34 29.67 12.68 29.34 12 29 C8.88083244 23.16133537 6.23363932 17.08567224 4.3125 10.75 C3.6628125 8.89375 3.6628125 8.89375 3 7 C2.01 6.67 1.02 6.34 0 6 C0 4.02 0 2.04 0 0 Z " fill="#0DC2C7" transform="translate(456,432)"/>
<path d="M0 0 C1.23384786 3.70154358 0.58331422 4.74651527 -0.8125 8.3125 C-1.18375 9.29089844 -1.555 10.26929688 -1.9375 11.27734375 C-2.4634375 12.62505859 -2.4634375 12.62505859 -3 14 C-4.64643839 18.23369871 -5.29457206 20.59845501 -4 25 C-3.01 25 -2.02 25 -1 25 C-1.99 26.65 -2.98 28.3 -4 30 C-5.98 29.34 -7.96 28.68 -10 28 C-10.08507812 28.82242188 -10.17015625 29.64484375 -10.2578125 30.4921875 C-11.16743504 34.79135088 -12.86614217 38.24408828 -14.875 42.125 C-15.22691406 42.82753906 -15.57882812 43.53007813 -15.94140625 44.25390625 C-17.71431333 47.74040381 -19.49994586 50.96534309 -22 54 C-23 51 -23 51 -22.29077148 49.15332031 C-21.90477783 48.46850586 -21.51878418 47.78369141 -21.12109375 47.078125 C-20.69731445 46.30766846 -20.27353516 45.53721191 -19.83691406 44.7434082 C-19.37510742 43.9205835 -18.91330078 43.09775879 -18.4375 42.25 C-13.95422367 34.00336106 -10.25798873 25.81410548 -7 17 C-6.16901427 14.77056261 -5.33645512 12.5417215 -4.50292969 10.31323242 C-3.96936191 8.88138571 -3.43989608 7.44800206 -2.91503906 6.01293945 C-1.10746813 1.10746813 -1.10746813 1.10746813 0 0 Z " fill="#A6B1BE" transform="translate(722,580)"/>
<path d="M0 0 C0.33 0 0.66 0 1 0 C0.85416667 2.04166667 0.70833333 4.08333333 0.5625 6.125 C0.47355469 7.38957031 0.38460937 8.65414062 0.29296875 9.95703125 C0.10179431 12.64326053 -0.10498924 15.32763853 -0.32421875 18.01171875 C-0.42347656 19.26597656 -0.52273437 20.52023437 -0.625 21.8125 C-0.72039062 22.97394531 -0.81578125 24.13539063 -0.9140625 25.33203125 C-0.94242188 26.21246094 -0.97078125 27.09289062 -1 28 C-0.67 28.33 -0.34 28.66 0 29 C0.04063832 30.66617115 0.042721 32.33388095 0 34 C-0.66 34 -1.32 34 -2 34 C-1.67 40.93 -1.34 47.86 -1 55 C-1.66 55 -2.32 55 -3 55 C-8.07859209 39.76422372 -3.98769653 17.49926184 -1 2 C-0.67 1.34 -0.34 0.68 0 0 Z " fill="#A8B2BE" transform="translate(248,518)"/>
<path d="M0 0 C1.31052767 4.30422506 0.45785552 7.9370534 -0.4375 12.25 C-0.58509766 12.99507813 -0.73269531 13.74015625 -0.88476562 14.5078125 C-1.2488694 16.34007665 -1.62341409 18.17026053 -2 20 C-2.66 19.67 -3.32 19.34 -4 19 C-6.69694835 20.10141725 -6.69694835 20.10141725 -9 22 C-9 23.32 -9 24.64 -9 26 C-9.66 26 -10.32 26 -11 26 C-11.19335938 26.69867188 -11.38671875 27.39734375 -11.5859375 28.1171875 C-11.84632813 29.02726562 -12.10671875 29.93734375 -12.375 30.875 C-12.63023437 31.77992188 -12.88546875 32.68484375 -13.1484375 33.6171875 C-14 36 -14 36 -16 38 C-15.46279125 32.72311402 -14.14209734 28.3381517 -11.9375 23.5 C-11.48201782 22.4780957 -11.48201782 22.4780957 -11.01733398 21.43554688 C-7.69421639 14.10665248 -3.89336134 7.0383883 0 0 Z " fill="#A8B3BF" transform="translate(273,452)"/>
<path d="M0 0 C3.72337252 1.23478404 5.00670837 3.28945402 6.76582336 6.69796753 C7.07642197 7.33131012 7.38702057 7.96465271 7.70703125 8.6171875 C8.20151009 9.59753464 8.20151009 9.59753464 8.70597839 10.59768677 C9.39835151 11.97835714 10.0846948 13.36206565 10.76538086 14.74853516 C11.80958818 16.86908675 12.87878426 18.97561705 13.95117188 21.08203125 C14.62133219 22.42631644 15.29000327 23.77134531 15.95703125 25.1171875 C16.43811089 26.06112869 16.43811089 26.06112869 16.9289093 27.0241394 C18.2114483 29.67359526 19.06839503 31.46351134 18.69018555 34.43017578 C18.3485437 35.20723877 18.3485437 35.20723877 18 36 C16.7254916 33.64776003 15.45534102 31.29333069 14.1875 28.9375 C13.65286133 27.95233398 13.65286133 27.95233398 13.10742188 26.94726562 C11.37138864 23.71410282 9.74752455 20.49614337 8.33984375 17.10546875 C7.24686207 14.04691303 7.24686207 14.04691303 5.375 12.375 C3.4588701 10.4588701 3.35484985 8.6258889 3 6 C0.60236815 8.39763185 0.65719414 9.33273498 0.375 12.625 C0.30023438 13.44226563 0.22546875 14.25953125 0.1484375 15.1015625 C0.09945313 15.72804688 0.05046875 16.35453125 0 17 C-0.99 17 -1.98 17 -3 17 C-2.68985608 14.91631462 -2.3767948 12.83306332 -2.0625 10.75 C-1.88847656 9.58984375 -1.71445312 8.4296875 -1.53515625 7.234375 C-1.1272264 4.76893039 -0.66098697 2.40575438 0 0 Z " fill="#11CFD1" transform="translate(428,378)"/>
<path d="M0 0 C0.66 0 1.32 0 2 0 C1.37166682 4.33443398 -0.18627768 7.71887218 -2.16015625 11.61328125 C-2.46948593 12.22769577 -2.77881561 12.84211029 -3.09751892 13.47514343 C-4.08021581 15.4238356 -5.07120274 17.36817113 -6.0625 19.3125 C-6.73297503 20.6383923 -7.40290286 21.96456146 -8.07226562 23.29101562 C-9.70852218 26.53057251 -11.35223725 29.76627749 -13 33 C-16 32 -16 32 -17.60546875 29.05859375 C-18.12753906 27.86363281 -18.64960938 26.66867187 -19.1875 25.4375 C-19.71730469 24.23996094 -20.24710937 23.04242187 -20.79296875 21.80859375 C-21.39044922 20.41833984 -21.39044922 20.41833984 -22 19 C-21.34 18.67 -20.68 18.34 -20 18 C-19.32845067 19.28913487 -18.66291141 20.58140204 -18 21.875 C-17.62875 22.59429688 -17.2575 23.31359375 -16.875 24.0546875 C-16 26 -16 26 -16 28 C-14.68 27.67 -13.36 27.34 -12 27 C-11.89042969 26.39671875 -11.78085937 25.7934375 -11.66796875 25.171875 C-10.77067374 20.64892454 -9.99044664 17.58853596 -7 14 C-6.505 12.845 -6.01 11.69 -5.5 10.5 C-4.22371732 7.52200709 -2.97000156 5.50727472 -1 3 C-0.67 2.01 -0.34 1.02 0 0 Z " fill="#F8C419" transform="translate(526,790)"/>
<path d="M0 0 C0.66 0.33 1.32 0.66 2 1 C2 1.66 2 2.32 2 3 C3.32 2.34 4.64 1.68 6 1 C8.84522376 3.84522376 9.56572332 7.09851431 10 11 C9.60975218 13.53661081 8.9084929 15.57735227 8 18 C8.66 18 9.32 18 10 18 C10 19.98 10 21.96 10 24 C6.96684589 20.31414184 4.89780463 16.23424341 2.75 12 C2.37359375 11.2884375 1.9971875 10.576875 1.609375 9.84375 C1.25875 9.1528125 0.908125 8.461875 0.546875 7.75 C0.06492676 6.81414063 0.06492676 6.81414063 -0.42675781 5.859375 C-1.13463131 3.56330833 -0.75851424 2.24450694 0 0 Z " fill="#A9E264" transform="translate(464,725)"/>
<path d="M0 0 C10.04755645 3.65037123 18.80232756 11.25022297 27.47143555 17.40869141 C34.5490397 22.42235944 41.75468762 27.23306958 49 32 C48.34 32.66 47.68 33.32 47 34 C21.69034407 16.61788714 21.69034407 16.61788714 12.625 10.1875 C9.79905104 8.19135661 6.98424136 6.38770073 3.9375 4.75 C1 3 1 3 0 0 Z " fill="#1EEDE9" transform="translate(312,294)"/>
<path d="M0 0 C0.33 0.66 0.66 1.32 1 2 C-4.5132451 10.28713851 -10.04157282 18.5639556 -15.61132812 26.81323242 C-16.46626246 28.08126389 -17.31940389 29.35050573 -18.17089844 30.62084961 C-19.41956666 32.48321794 -20.67396767 34.34160023 -21.9296875 36.19921875 C-22.66429199 37.29065186 -23.39889648 38.38208496 -24.15576172 39.5065918 C-26 42 -26 42 -28 43 C-27.29977385 38.56523436 -26.14753592 37.14753592 -23 34 C-22.690625 33.195625 -22.38125 32.39125 -22.0625 31.5625 C-20.98014306 28.95210974 -20.04040079 27.87716873 -18 26 C-15.72456438 23.32204957 -15.72456438 23.32204957 -14.625 20.0625 C-13.67146923 16.91584844 -11.31809326 15.26014092 -9 13 C-8.67 12.01 -8.34 11.02 -8 10 C-7.34 10 -6.68 10 -6 10 C-5.7525 9.278125 -5.505 8.55625 -5.25 7.8125 C-3.89016326 4.75286734 -2.17082246 2.5326262 0 0 Z " fill="#01A3A8" transform="translate(486,594)"/>
<path d="M0 0 C0.99 0 1.98 0 3 0 C0.97364821 6.43654172 -1.93878012 12.2829693 -4.9375 18.3125 C-5.47568359 19.42173828 -6.01386719 20.53097656 -6.56835938 21.67382812 C-7.09107422 22.72634766 -7.61378906 23.77886719 -8.15234375 24.86328125 C-8.62663818 25.82532471 -9.10093262 26.78736816 -9.58959961 27.77856445 C-11 30 -11 30 -14 31 C-14.33 29.68 -14.66 28.36 -15 27 C-14.37609375 26.93941406 -13.7521875 26.87882813 -13.109375 26.81640625 C-10.76632566 26.19151441 -10.76632566 26.19151441 -9.953125 23.71484375 C-9.60507812 22.34005859 -9.60507812 22.34005859 -9.25 20.9375 C-9.00765625 20.01839844 -8.7653125 19.09929688 -8.515625 18.15234375 C-8.34546875 17.44207031 -8.1753125 16.73179687 -8 16 C-7.34 16 -6.68 16 -6 16 C-6 14.02 -6 12.04 -6 10 C-5.360625 9.79375 -4.72125 9.5875 -4.0625 9.375 C-1.66547511 8.11815733 -1.66547511 8.11815733 -1.3125 5 C-1.1578125 3.515 -1.1578125 3.515 -1 2 C-0.67 1.34 -0.34 0.68 0 0 Z " fill="#5BE2A5" transform="translate(606,630)"/>
<path d="M0 0 C0.66 0 1.32 0 2 0 C0.59727316 4.52123544 -1.1869574 8.67502157 -3.2578125 12.9296875 C-3.56572723 13.56488312 -3.87364197 14.20007874 -4.19088745 14.85452271 C-5.16549367 16.86303749 -6.14515331 18.86903741 -7.125 20.875 C-7.79070141 22.24462801 -8.45606933 23.61441815 -9.12109375 24.984375 C-10.74354458 28.32479994 -12.37053387 31.66299047 -14 35 C-14.66 35 -15.32 35 -16 35 C-16 33.68 -16 32.36 -16 31 C-15.34 31 -14.68 31 -14 31 C-13.67 28.36 -13.34 25.72 -13 23 C-12.01 23 -11.02 23 -10 23 C-9.80664062 22.41992188 -9.61328125 21.83984375 -9.4140625 21.2421875 C-8.87565065 19.62695194 -8.33519761 18.0123957 -7.79296875 16.3984375 C-7.14596483 14.44148969 -6.53622048 12.47225571 -5.9375 10.5 C-5 8 -5 8 -3 7 C-1.94647157 4.69034152 -0.94280904 2.3570226 0 0 Z " fill="#2EE1C6" transform="translate(656,529)"/>
<path d="M0 0 C3.3 0 6.6 0 10 0 C9.70703125 2.21354167 9.4140625 4.42708333 9.12109375 6.640625 C8.9993346 9.01296453 9.42052702 10.72106426 10 13 C9.67 13.66 9.34 14.32 9 15 C8.34 15 7.68 15 7 15 C4.69 10.05 2.38 5.1 0 0 Z " fill="#7EE37F" transform="translate(455,712)"/>
<path d="M0 0 C0.99 0.33 1.98 0.66 3 1 C1.96359375 2.03253906 1.96359375 2.03253906 0.90625 3.0859375 C-1.12862043 5.11937492 -3.14608606 7.16871219 -5.15625 9.2265625 C-6.27076901 10.35943829 -7.38535323 11.49224992 -8.5 12.625 C-9.05558594 13.19734375 -9.61117187 13.7696875 -10.18359375 14.359375 C-13.21448647 17.42592528 -16.04115028 20.14603164 -20 22 C-20.66 21.67 -21.32 21.34 -22 21 C-20.99839844 20.154375 -19.99679687 19.30875 -18.96484375 18.4375 C-8.83656685 9.86696746 -8.83656685 9.86696746 0 0 Z M-25 22 C-24.01 22.33 -23.02 22.66 -22 23 C-23.98 24.98 -25.96 26.96 -28 29 C-28.66 28.67 -29.32 28.34 -30 28 C-28.35 26.02 -26.7 24.04 -25 22 Z " fill="#29E6BC" transform="translate(560,607)"/>
<path d="M0 0 C0.66 0 1.32 0 2 0 C2.103125 0.61875 2.20625 1.2375 2.3125 1.875 C2.87525373 4.36526484 2.87525373 4.36526484 6 6 C6.6875 8.625 6.6875 8.625 7 11 C7.66 11 8.32 11 9 11 C10 14 10 14 10 16 C10.32843384 18.06381575 10.32843384 18.06381575 11 20 C11.66 20.33 12.32 20.66 13 21 C13.625 24.0625 13.625 24.0625 14 27 C13.34 27.33 12.68 27.66 12 28 C9.98695309 24.08990623 7.99186396 20.17092141 6 16.25 C5.42765625 15.13882813 4.8553125 14.02765625 4.265625 12.8828125 C3.72421875 11.81289063 3.1828125 10.74296875 2.625 9.640625 C2.12226563 8.65610352 1.61953125 7.67158203 1.1015625 6.65722656 C0 4 0 4 0 0 Z " fill="#D8DB3B" transform="translate(474,747)"/>
<path d="M0 0 C0.66 1.32 1.32 2.64 2 4 C1.05016642 5.50539661 0.08988109 7.00420347 -0.875 8.5 C-1.40867187 9.3353125 -1.94234375 10.170625 -2.4921875 11.03125 C-2.98976563 11.6809375 -3.48734375 12.330625 -4 13 C-4.66 13 -5.32 13 -6 13 C-6.45375 13.495 -6.9075 13.99 -7.375 14.5 C-9 16 -9 16 -13 16 C-12.52648061 11.73832553 -9.99978097 9.84979192 -7 7 C-6.67 6.34 -6.34 5.68 -6 5 C-5.01 5.33 -4.02 5.66 -3 6 C-2.01 4.02 -1.02 2.04 0 0 Z " fill="#82E474" transform="translate(548,696)"/>
<path d="M0 0 C-1.6396875 1.0828125 -1.6396875 1.0828125 -3.3125 2.1875 C-6.50615299 4.44486115 -8.06370646 6.5884352 -10 10 C-11.9375 11.125 -11.9375 11.125 -14 12 C-15.35113205 12.97581759 -16.68946944 13.97029741 -18 15 C-18 13.68 -18 12.36 -18 11 C-17.34 11 -16.68 11 -16 11 C-15.7525 10.443125 -15.505 9.88625 -15.25 9.3125 C-12.09786458 3.48104947 -7.22829098 -2.40943033 0 0 Z " fill="#3EE19E" transform="translate(478,682)"/>
<path d="M0 0 C0.33 0 0.66 0 1 0 C0.45166463 6.61091657 -1.28328479 12.28970271 -3.5625 18.5 C-3.89185547 19.4178125 -4.22121094 20.335625 -4.56054688 21.28125 C-5.36638888 23.52359298 -6.17963729 25.76293768 -7 28 C-7.66 28 -8.32 28 -9 28 C-8.79503906 27.35933594 -8.59007812 26.71867188 -8.37890625 26.05859375 C-6.07047736 18.65096427 -6.07047736 18.65096427 -5 11 C-5.66 10.01 -6.32 9.02 -7 8 C-5.6875 6.5 -5.6875 6.5 -4 5 C-3.01 5 -2.02 5 -1 5 C-0.67 3.35 -0.34 1.7 0 0 Z " fill="#A4B0BE" transform="translate(767,606)"/>
<path d="M0 0 C0.33 0 0.66 0 1 0 C1.16735414 10.04124829 0.41017706 19.7763578 -1.59765625 29.625 C-2.11135205 32.25582825 -2.11135205 32.25582825 -2 36 C-2.66 36 -3.32 36 -4 36 C-4 37.65 -4 39.3 -4 41 C-4.66 41 -5.32 41 -6 41 C-4.38050223 27.25423063 -2.60477673 13.59656507 0 0 Z " fill="#02AABC" transform="translate(407,521)"/>
<path d="M0 0 C2.83901401 2.48551811 4.2607688 5.17511078 5.91796875 8.54296875 C6.44970703 9.61611328 6.98144531 10.68925781 7.52929688 11.79492188 C8.07650391 12.91447266 8.62371094 14.03402344 9.1875 15.1875 C10.02571289 16.88422852 10.02571289 16.88422852 10.88085938 18.61523438 C12.25933778 21.40753679 13.63213656 24.20248638 15 27 C14.01 27.33 13.02 27.66 12 28 C10.49373883 24.87797994 8.99606757 21.75191601 7.5 18.625 C7.07074219 17.73554688 6.64148438 16.84609375 6.19921875 15.9296875 C5.79316406 15.07890625 5.38710938 14.228125 4.96875 13.3515625 C4.59169922 12.56604004 4.21464844 11.78051758 3.82617188 10.97119141 C3 9 3 9 3 7 C2.01 6.67 1.02 6.34 0 6 C0 4.02 0 2.04 0 0 Z " fill="#0AC7CB" transform="translate(456,432)"/>
<path d="M0 0 C3.04408304 3.56687122 5.21082201 7.09510916 7.25 11.3125 C7.77078125 12.38113281 8.2915625 13.44976563 8.828125 14.55078125 C9.21484375 15.35902344 9.6015625 16.16726563 10 17 C8.02013918 16.88652381 6.04108402 16.7589065 4.0625 16.625 C2.96035156 16.55539062 1.85820312 16.48578125 0.72265625 16.4140625 C-0.17582031 16.27742187 -1.07429688 16.14078125 -2 16 C-2.33 15.34 -2.66 14.68 -3 14 C-1.02 14 0.96 14 3 14 C2.50269348 9.02693484 1.44697666 5.36200187 -1 1 C-0.67 0.67 -0.34 0.34 0 0 Z " fill="#9EAAB6" transform="translate(461,784)"/>
<path d="M0 0 C-0.625 2.4375 -0.625 2.4375 -2 5 C-4.9375 5.625 -4.9375 5.625 -8 6 C-9.85801239 7.43691955 -9.85801239 7.43691955 -11 9 C-11.33 8.67 -11.66 8.34 -12 8 C-12.33 8.66 -12.66 9.32 -13 10 C-13.66 10 -14.32 10 -15 10 C-14.8125 7.1875 -14.8125 7.1875 -14 4 C-9.55598802 0.51685548 -5.51610954 -0.15322526 0 0 Z " fill="#7BE477" transform="translate(531,704)"/>
<path d="M0 0 C0.66 0.66 1.32 1.32 2 2 C0.92808717 4.11070475 -0.15669589 6.21290986 -1.25 8.3125 C-1.85328125 9.48425781 -2.4565625 10.65601563 -3.078125 11.86328125 C-4.85984834 14.77125655 -6.13494346 16.24420208 -9 18 C-10.125 16.25 -10.125 16.25 -11 14 C-10.00880868 11.02642605 -8.39817039 8.99847532 -6 7 C-5.34 7 -4.68 7 -4 7 C-3.67 6.01 -3.34 5.02 -3 4 C-2.03126968 2.64377755 -1.03565785 1.30582947 0 0 Z " fill="#8AE379" transform="translate(582,681)"/>
<path d="M0 0 C0.33 0.66 0.66 1.32 1 2 C0.19555664 4.15478516 0.19555664 4.15478516 -1.08984375 6.7890625 C-1.54423828 7.73007813 -1.99863281 8.67109375 -2.46679688 9.640625 C-2.95212891 10.62546875 -3.43746094 11.6103125 -3.9375 12.625 C-4.41896484 13.61757812 -4.90042969 14.61015625 -5.39648438 15.6328125 C-6.59064111 18.09206598 -7.7920631 20.54749335 -9 23 C-10.11657408 19.23318395 -9.69671012 17.50619234 -8.125 13.875 C-7.75632812 13.00617188 -7.38765625 12.13734375 -7.0078125 11.2421875 C-6.36643873 9.81525516 -5.69964222 8.39928445 -5 7 C-5.66 6.34 -6.32 5.68 -7 5 C-4.69 3.35 -2.38 1.7 0 0 Z " fill="#20E9E2" transform="translate(806,214)"/>
<path d="M0 0 C1.05719873 2.70328799 1.04669555 3.86155424 0.10375977 6.65722656 C-0.36231689 7.64174805 -0.82839355 8.62626953 -1.30859375 9.640625 C-1.80810547 10.71054687 -2.30761719 11.78046875 -2.82226562 12.8828125 C-3.35529297 13.99398438 -3.88832031 15.10515625 -4.4375 16.25 C-4.96666016 17.37664062 -5.49582031 18.50328125 -6.04101562 19.6640625 C-7.35031916 22.44780695 -8.67027484 25.22596732 -10 28 C-10.66 28 -11.32 28 -12 28 C-11.79503906 27.40832031 -11.59007812 26.81664062 -11.37890625 26.20703125 C-10.0002429 22.16339184 -8.68249153 18.23144751 -8 14 C-7.34 14 -6.68 14 -6 14 C-5.7525 13.175 -5.505 12.35 -5.25 11.5 C-3.81295189 7.47626529 -1.97645485 3.78020976 0 0 Z " fill="#1CEEE6" transform="translate(787,252)"/>
<path d="M0 0 C2 2 2 2 2.22705078 4.24658203 C2.21657715 5.15778809 2.20610352 6.06899414 2.1953125 7.0078125 C2.18886719 7.99394531 2.18242188 8.98007812 2.17578125 9.99609375 C2.15902344 11.02863281 2.14226563 12.06117188 2.125 13.125 C2.11597656 14.16527344 2.10695313 15.20554687 2.09765625 16.27734375 C2.07403747 18.85179092 2.04110149 21.42578212 2 24 C0.68 23.67 -0.64 23.34 -2 23 C-1.84152588 22.4337793 -1.68305176 21.86755859 -1.51977539 21.28417969 C-0.99214152 18.9654655 -0.795844 16.82641603 -0.68359375 14.453125 C-0.64169922 13.60878906 -0.59980469 12.76445313 -0.55664062 11.89453125 C-0.51732422 11.02183594 -0.47800781 10.14914062 -0.4375 9.25 C-0.39431641 8.36183594 -0.35113281 7.47367188 -0.30664062 6.55859375 C-0.20086385 4.37254037 -0.09877454 2.18637911 0 0 Z " fill="#AEB8C3" transform="translate(778,516)"/>
<path d="M0 0 C0.99 0.33 1.98 0.66 3 1 C-3.36164316 6.83302525 -10.23844422 13.11922211 -18 17 C-18 16.01 -18 15.02 -18 14 C-15.79119863 12.03924585 -13.60756605 10.26349683 -11.25 8.5 C-10.61578125 8.01402344 -9.9815625 7.52804687 -9.328125 7.02734375 C-8.10113462 6.08920736 -6.86887611 5.1579116 -5.63085938 4.234375 C-4.3007064 3.22760053 -3.01085873 2.167757 -1.734375 1.09375 C-1.16203125 0.7328125 -0.5896875 0.371875 0 0 Z " fill="#17EEE7" transform="translate(738,267)"/>
<path d="M0 0 C0.99 0.33 1.98 0.66 3 1 C0.65667733 3.26152105 -1.70150643 5.50694485 -4.0625 7.75 C-4.71927734 8.38421875 -5.37605469 9.0184375 -6.05273438 9.671875 C-10.12448372 13.52298768 -14.01368574 16.4322751 -19 19 C-18.9375 17.25 -18.9375 17.25 -18 15 C-16.31670265 14.04283092 -14.62822995 13.09272176 -12.90625 12.20703125 C-10.15324489 10.46383744 -8.40903731 8.16236048 -6.45703125 5.5859375 C-4.80205768 3.78454536 -3.18240879 3.05731606 -1 2 C-0.67 1.34 -0.34 0.68 0 0 Z " fill="#1FE4C5" transform="translate(582,589)"/>
<path d="M0 0 C0.66 0.33 1.32 0.66 2 1 C-0.97 6.61 -3.94 12.22 -7 18 C-7.33 16.68 -7.66 15.36 -8 14 C-8.33 13.01 -8.66 12.02 -9 11 C-7.71034824 9.62437146 -6.37310707 8.29233607 -5 7 C-4.34 7 -3.68 7 -3 7 C-2.814375 5.824375 -2.814375 5.824375 -2.625 4.625 C-2 2 -2 2 0 0 Z " fill="#6EE595" transform="translate(592,661)"/>
<path d="M0 0 C0.66 0.66 1.32 1.32 2 2 C1.07487334 3.98498051 0.13449763 5.96286018 -0.8125 7.9375 C-1.59560547 9.59072266 -1.59560547 9.59072266 -2.39453125 11.27734375 C-4 14 -4 14 -7 15 C-7.1875 12.625 -7.1875 12.625 -7 10 C-6.01 9.34 -5.02 8.68 -4 8 C-4.33 6.02 -4.66 4.04 -5 2 C-3.35 1.34 -1.7 0.68 0 0 Z " fill="#CBE04C" transform="translate(559,726)"/>
<path d="M0 0 C0.99 0.33 1.98 0.66 3 1 C3.87890625 2.8125 3.87890625 2.8125 4.5625 5 C5.20681284 7.14541038 5.20681284 7.14541038 6 9 C6.66 9.33 7.32 9.66 8 10 C8.625 13.0625 8.625 13.0625 9 16 C8.01 16 7.02 16 6 16 C4.9901527 14.08850332 3.99245505 12.17058431 3 10.25 C2.443125 9.18265625 1.88625 8.1153125 1.3125 7.015625 C0 4 0 4 0 0 Z " fill="#26D7B0" transform="translate(437,672)"/>
<path d="M0 0 C6 6 12 12 18 18 C17.67 18.66 17.34 19.32 17 20 C15.85073734 19.04578192 14.70569459 18.08647955 13.5625 17.125 C12.92441406 16.59132813 12.28632813 16.05765625 11.62890625 15.5078125 C10 14 10 14 9 12 C8.38125 11.938125 7.7625 11.87625 7.125 11.8125 C5 11 5 11 3.4375 7.625 C2.963125 6.42875 2.48875 5.2325 2 4 C0.46048953 2.11970761 0.46048953 2.11970761 -1 1 C-0.67 0.67 -0.34 0.34 0 0 Z " fill="#A2AEBB" transform="translate(316,669)"/>
<path d="M0 0 C0.66 0 1.32 0 2 0 C1.35534798 4.33304076 -0.18925122 7.86672065 -2.0625 11.8125 C-2.61035156 12.97394531 -3.15820312 14.13539063 -3.72265625 15.33203125 C-4.14417969 16.21246094 -4.56570313 17.09289062 -5 18 C-5.66 18 -6.32 18 -7 18 C-7 15.36 -7 12.72 -7 10 C-6.01 10 -5.02 10 -4 10 C-4 9.34 -4 8.68 -4 8 C-3.34 8 -2.68 8 -2 8 C-1.855625 7.236875 -1.71125 6.47375 -1.5625 5.6875 C-1 3 -1 3 0 0 Z " fill="#4FE5B5" transform="translate(615,612)"/>
<path d="M0 0 C4.56100291 3.72326768 8.41924721 7.54650465 12.22265625 12.03125 C14.90810843 15.00590472 17.89826783 17.46797374 21 20 C20.67 20.66 20.34 21.32 20 22 C12.71129669 15.59669232 5.79885803 8.9151883 -1 2 C-0.67 1.34 -0.34 0.68 0 0 Z " fill="#A1ABB6" transform="translate(308,716)"/>
<path d="M0 0 C0.33 1.32 0.66 2.64 1 4 C-0.65 4.33 -2.3 4.66 -4 5 C-4.33 6.32 -4.66 7.64 -5 9 C-8.63 9.66 -12.26 10.32 -16 11 C-12.92486954 7.62631319 -9.71481144 5.49098038 -5.75 3.25 C-4.67234375 2.63640625 -3.5946875 2.0228125 -2.484375 1.390625 C-1.66453125 0.93171875 -0.8446875 0.4728125 0 0 Z " fill="#ADB6C1" transform="translate(440,311)"/>
<path d="M0 0 C2.69673919 1.29630899 5.18965614 2.7137343 7.671875 4.3828125 C8.33574219 4.82753906 8.99960938 5.27226562 9.68359375 5.73046875 C10.36550781 6.19066406 11.04742187 6.65085938 11.75 7.125 C12.44738281 7.59292969 13.14476562 8.06085938 13.86328125 8.54296875 C15.57692526 9.69322295 17.28865316 10.84633086 19 12 C15.3203125 13.15625 15.3203125 13.15625 12.4375 11.75 C10 10 10 10 8.4375 8.3125 C6.83210158 6.55048709 6.83210158 6.55048709 3 7 C2.01 4.69 1.02 2.38 0 0 Z " fill="#1CE7E3" transform="translate(214,225)"/>
<path d="M0 0 C2.475 0.99 2.475 0.99 5 2 C5.103125 3.051875 5.20625 4.10375 5.3125 5.1875 C5.98499319 8.91678039 6.9988781 10.86780921 9 14 C9 14.99 9 15.98 9 17 C8.34 17 7.68 17 7 17 C5.82592979 14.73272667 4.66060261 12.46165376 3.5 10.1875 C3.16613281 9.54490234 2.83226562 8.90230469 2.48828125 8.24023438 C0.99760916 5.30452301 0 3.33873483 0 0 Z " fill="#EED328" transform="translate(487,774)"/>
<path d="M0 0 C3.1137257 0.61583055 5.24829807 1.63787677 7.85546875 3.43359375 C8.55994141 3.91763672 9.26441406 4.40167969 9.99023438 4.90039062 C10.71533203 5.40763672 11.44042969 5.91488281 12.1875 6.4375 C12.92419922 6.94087891 13.66089844 7.44425781 14.41992188 7.96289062 C19.86872691 11.73745382 19.86872691 11.73745382 21 14 C17.2836485 13.37917098 14.9451964 11.71380972 11.9375 9.5 C9.20901903 7.4977463 7.2216469 6.0738823 4 5 C4 4.34 4 3.68 4 3 C2.68 2.34 1.36 1.68 0 1 C0 0.67 0 0.34 0 0 Z " fill="#1DE9E4" transform="translate(375,338)"/>
<path d="M0 0 C0 0.33 0 0.66 0 1 C-8.25 1.99 -16.5 2.98 -25 4 C-24.67 3.34 -24.34 2.68 -24 2 C-23.34 2 -22.68 2 -22 2 C-22 1.34 -22 0.68 -22 0 C-19.27119539 -0.19555932 -16.54228931 -0.38170447 -13.8125 -0.5625 C-13.04357422 -0.61857422 -12.27464844 -0.67464844 -11.48242188 -0.73242188 C-7.45938647 -0.99141557 -3.93927628 -1.06573607 0 0 Z " fill="#AEB9C4" transform="translate(476,312)"/>
<path d="M0 0 C1.9375 0.75 1.9375 0.75 4 2 C4.75 4.125 4.75 4.125 5 6 C3.68 6.33 2.36 6.66 1 7 C0.67 10.3 0.34 13.6 0 17 C-0.99 17 -1.98 17 -3 17 C-2.68985608 14.91631462 -2.3767948 12.83306332 -2.0625 10.75 C-1.88847656 9.58984375 -1.71445312 8.4296875 -1.53515625 7.234375 C-1.1272264 4.76893039 -0.66098697 2.40575438 0 0 Z " fill="#07C6CF" transform="translate(428,378)"/>
<path d="M0 0 C0.66 0 1.32 0 2 0 C3.14501953 1.51293945 3.14501953 1.51293945 4.3828125 3.61328125 C5.04990234 4.7434668 5.04990234 4.7434668 5.73046875 5.89648438 C6.42076172 7.09241211 6.42076172 7.09241211 7.125 8.3125 C7.59292969 9.09818359 8.06085938 9.88386719 8.54296875 10.69335938 C12 16.61465926 12 16.61465926 12 20 C11.34 20 10.68 20 10 20 C9.61328125 19.20335937 9.2265625 18.40671875 8.828125 17.5859375 C5.55622506 10.79275849 5.55622506 10.79275849 1.625 4.375 C0 2 0 2 0 0 Z " fill="#A2ADB9" transform="translate(448,764)"/>
<path d="M0 0 C0.66 0.66 1.32 1.32 2 2 C0.43902526 3.1063219 -1.12385327 4.20995785 -2.6875 5.3125 C-3.55761719 5.92738281 -4.42773438 6.54226563 -5.32421875 7.17578125 C-7.83343208 8.88644201 -10.38764742 10.4533833 -13 12 C-13.99 12.66 -14.98 13.32 -16 14 C-14.50871999 10.20401451 -12.34266559 8.28279601 -9 6 C-8.01 6 -7.02 6 -6 6 C-6 5.34 -6 4.68 -6 4 C-4.36368108 2.95107762 -2.69514137 1.95093297 -1 1 C-0.67 0.67 -0.34 0.34 0 0 Z " fill="#23DFB4" transform="translate(514,648)"/>
<path d="M0 0 C0.66 0 1.32 0 2 0 C4.64 5.28 7.28 10.56 10 16 C9.01 16 8.02 16 7 16 C6.32880451 14.5437455 5.66318193 13.08492133 5 11.625 C4.62875 10.81289063 4.2575 10.00078125 3.875 9.1640625 C3 7 3 7 3 5 C2.34 5 1.68 5 1 5 C1 4.34 1 3.68 1 3 C0.34 2.67 -0.32 2.34 -1 2 C-0.67 1.34 -0.34 0.68 0 0 Z " fill="#ADB7C0" transform="translate(747,411)"/>
<path d="M0 0 C0.66 0.33 1.32 0.66 2 1 C0.02 4.96 -1.96 8.92 -4 13 C-4.99 13 -5.98 13 -7 13 C-7.33 13.66 -7.66 14.32 -8 15 C-8 13.68 -8 12.36 -8 11 C-7.01 11 -6.02 11 -5 11 C-4.731875 9.9275 -4.46375 8.855 -4.1875 7.75 C-3.13772173 4.43491072 -2.25387672 2.56122354 0 0 Z " fill="#DCDC38" transform="translate(552,741)"/>
<path d="M0 0 C0.66 0.33 1.32 0.66 2 1 C-0.31 5.62 -2.62 10.24 -5 15 C-5.66 15 -6.32 15 -7 15 C-7.46174018 10.42382495 -6.21158892 8.3190923 -3.5 4.6875 C-2.8503125 3.80449219 -2.200625 2.92148437 -1.53125 2.01171875 C-1.0259375 1.34785156 -0.520625 0.68398438 0 0 Z " fill="#C1E36E" transform="translate(567,712)"/>
<path d="M0 0 C0.66 0 1.32 0 2 0 C0.50829734 4.9723422 -1.60457417 9.41845739 -4 14 C-4.66 14 -5.32 14 -6 14 C-5.21081111 8.63351555 -2.98635435 4.47953152 0 0 Z " fill="#E9D82D" transform="translate(545,754)"/>
<path d="M0 0 C0.66 0 1.32 0 2 0 C2 0.66 2 1.32 2 2 C2.66 2 3.32 2 4 2 C3.34 4.31 2.68 6.62 2 9 C2.66 9.33 3.32 9.66 4 10 C3.34 10.66 2.68 11.32 2 12 C1.27232997 10.76115681 0.56845185 9.50831659 -0.125 8.25 C-0.51945312 7.55390625 -0.91390625 6.8578125 -1.3203125 6.140625 C-2 4 -2 4 -1.1171875 1.734375 C-0.74851562 1.16203125 -0.37984375 0.5896875 0 0 Z " fill="#14BBAF" transform="translate(434,662)"/>
<path d="M0 0 C0.66 0.33 1.32 0.66 2 1 C0.62642293 3.9237569 -0.94785266 6.47133557 -2.875 9.0625 C-3.36742187 9.73410156 -3.85984375 10.40570312 -4.3671875 11.09765625 C-6.07323118 13.08531958 -7.85449719 14.5092935 -10 16 C-8.31029911 12.33601701 -6.12699789 9.09167428 -3.875 5.75 C-3.15054687 4.67234375 -2.42609375 3.5946875 -1.6796875 2.484375 C-0.84824219 1.25460937 -0.84824219 1.25460937 0 0 Z " fill="#15DFC2" transform="translate(446,655)"/>
<path d="M0 0 C0 4.17954642 -2.15134596 6.74859279 -4.375 10.125 C-4.7875 10.77082031 -5.2 11.41664063 -5.625 12.08203125 C-8.73507861 16.86753931 -8.73507861 16.86753931 -11 18 C-10.38394021 13.99561138 -8.24558699 11.29820589 -6 8 C-5.67 7.01 -5.34 6.02 -5 5 C-3.37347684 3.29413425 -1.70993434 1.6222454 0 0 Z " fill="#02A0A4" transform="translate(457,637)"/>
<path d="M0 0 C4 1 4 1 5.30078125 2.55859375 C6.26069107 4.34128342 7.13325366 6.17020217 8 8 C7 10 7 10 5 11 C3.35 7.37 1.7 3.74 0 0 Z " fill="#10ADB2" transform="translate(408,617)"/>
<path d="M0 0 C2.46221297 3.69331946 2.11938241 5.21253608 1.75 9.5625 C1.66234375 10.71878906 1.5746875 11.87507812 1.484375 13.06640625 C1 16 1 16 -1 18 C-1.02707139 15.75006641 -1.04642829 13.50003905 -1.0625 11.25 C-1.07410156 9.99703125 -1.08570313 8.7440625 -1.09765625 7.453125 C-1.02021027 4.71463499 -0.82780815 2.58119707 0 0 Z " fill="#AEB8C3" transform="translate(777,548)"/>
<path d="M0 0 C3.14248678 1.57124339 3.70128824 4.2977685 5.125 7.4375 C5.66382813 8.61183594 6.20265625 9.78617188 6.7578125 10.99609375 C8 14 8 14 8 16 C7.34 16 6.68 16 6 16 C4.9901527 14.08850332 3.99245505 12.17058431 3 10.25 C2.443125 9.18265625 1.88625 8.1153125 1.3125 7.015625 C0 4 0 4 0 0 Z " fill="#1DEBE9" transform="translate(221,236)"/>
<path d="M0 0 C0.66 0.33 1.32 0.66 2 1 C2 1.66 2 2.32 2 3 C3.32 2.34 4.64 1.68 6 1 C8 3 8 3 8 7 C6.68 7.33 5.36 7.66 4 8 C2.35 6.02 0.7 4.04 -1 2 C-0.67 1.34 -0.34 0.68 0 0 Z " fill="#94E266" transform="translate(464,725)"/>
<path d="M0 0 C0.66 0.66 1.32 1.32 2 2 C0.35 5.3 -1.3 8.6 -3 12 C-3.33 11.34 -3.66 10.68 -4 10 C-4.99 9.67 -5.98 9.34 -7 9 C-6.67 8.34 -6.34 7.68 -6 7 C-5.34 7 -4.68 7 -4 7 C-3.67 6.01 -3.34 5.02 -3 4 C-2.03126968 2.64377755 -1.03565785 1.30582947 0 0 Z " fill="#94E48C" transform="translate(582,681)"/>
<path d="M0 0 C0.99 0 1.98 0 3 0 C4.98 4.29 6.96 8.58 9 13 C8.01 13 7.02 13 6 13 C4.02 8.71 2.04 4.42 0 0 Z " fill="#1ACBCE" transform="translate(462,447)"/>
<path d="M0 0 C3 1 3 1 4.125 2.875 C4.81761182 4.55705727 5.4247585 6.27427551 6 8 C6.99 9.485 6.99 9.485 8 11 C8.125 13.6875 8.125 13.6875 8 16 C5.70351643 13.10414095 3.95652443 10.1827969 2.3125 6.875 C1.65701172 5.57175781 1.65701172 5.57175781 0.98828125 4.2421875 C0 2 0 2 0 0 Z " fill="#1FD6D8" transform="translate(311,421)"/>
<path d="M0 0 C0.66 0 1.32 0 2 0 C2.103125 0.61875 2.20625 1.2375 2.3125 1.875 C2.87525373 4.36526484 2.87525373 4.36526484 6 6 C6.1875 9.125 6.1875 9.125 6 12 C5.34 12 4.68 12 4 12 C3.32332002 10.75539217 2.65905281 9.50403104 2 8.25 C1.62875 7.55390625 1.2575 6.8578125 0.875 6.140625 C0 4 0 4 0 0 Z " fill="#CEE14C" transform="translate(474,747)"/>
<path d="M0 0 C0.66 0.33 1.32 0.66 2 1 C1.505 1.391875 1.01 1.78375 0.5 2.1875 C-1.45593143 4.55091715 -1.24207973 6.01435003 -1 9 C-1.99 9.33 -2.98 9.66 -4 10 C-4 9.34 -4 8.68 -4 8 C-4.99 7.67 -5.98 7.34 -7 7 C-4.66666667 4.66666667 -2.33333333 2.33333333 0 0 Z " fill="#5DE590" transform="translate(458,696)"/>
<path d="M0 0 C2.04355211 3.06532816 2.38658825 4.38354689 2.75 7.9375 C2.84796875 8.79214844 2.9459375 9.64679688 3.046875 10.52734375 C2.99549449 13.23766556 2.38633814 14.70187794 1 17 C0.09586327 13.16275828 -0.10576898 9.62497726 -0.0625 5.6875 C-0.05347656 4.61886719 -0.04445313 3.55023438 -0.03515625 2.44921875 C-0.02355469 1.64097656 -0.01195312 0.83273437 0 0 Z " fill="#AEB8C3" transform="translate(776,495)"/>
<path d="M0 0 C2.9777759 2.49996659 3.94548483 5.04711071 5.1875 8.6875 C5.53167969 9.68136719 5.87585938 10.67523438 6.23046875 11.69921875 C6.48441406 12.45847656 6.73835937 13.21773438 7 14 C6.01 14.495 6.01 14.495 5 15 C4.87625 14.360625 4.7525 13.72125 4.625 13.0625 C4.41875 12.381875 4.2125 11.70125 4 11 C3.34 10.67 2.68 10.34 2 10 C1.3671875 7.71484375 1.3671875 7.71484375 0.875 4.9375 C0.70742188 4.01839844 0.53984375 3.09929687 0.3671875 2.15234375 C0.24601563 1.44207031 0.12484375 0.73179687 0 0 Z " fill="#ABB5C0" transform="translate(760,437)"/>
<path d="M0 0 C2.475 0.99 2.475 0.99 5 2 C6.4375 5.4375 6.4375 5.4375 7 9 C6.01 10.485 6.01 10.485 5 12 C3.35 8.04 1.7 4.08 0 0 Z " fill="#14D9DA" transform="translate(305,409)"/>
<path d="M0 0 C-2.31663713 4.96422241 -5.43999727 7.02608518 -10 10 C-10.66 9.67 -11.32 9.34 -12 9 C-10.38050958 7.49405319 -8.75424026 5.99539332 -7.125 4.5 C-6.22007812 3.6646875 -5.31515625 2.829375 -4.3828125 1.96875 C-2 0 -2 0 0 0 Z " fill="#39E6AD" transform="translate(505,657)"/>
<path d="M0 0 C0.66 0 1.32 0 2 0 C3.98 4.29 5.96 8.58 8 13 C7.34 13.66 6.68 14.32 6 15 C4.99539469 12.87717331 3.99644398 10.75166979 3 8.625 C2.443125 7.44164062 1.88625 6.25828125 1.3125 5.0390625 C0 2 0 2 0 0 Z " fill="#19DBDC" transform="translate(295,388)"/>
<path d="M0 0 C3.29680965 0.65784963 5.84117922 1.89420573 8.75 3.5625 C9.94882812 4.24505859 9.94882812 4.24505859 11.171875 4.94140625 C11.77515625 5.29074219 12.3784375 5.64007812 13 6 C13 6.66 13 7.32 13 8 C9.52709591 7.36276989 7.15645247 5.97562783 4.25 4 C3.45078125 3.46375 2.6515625 2.9275 1.828125 2.375 C1.22484375 1.92125 0.6215625 1.4675 0 1 C0 0.67 0 0.34 0 0 Z " fill="#A4B0BC" transform="translate(366,715)"/>
<path d="M0 0 C0.66 0.33 1.32 0.66 2 1 C1.07615834 2.67427615 0.13549431 4.33928003 -0.8125 6 C-1.59560547 7.3921875 -1.59560547 7.3921875 -2.39453125 8.8125 C-2.92433594 9.534375 -3.45414062 10.25625 -4 11 C-4.99 11 -5.98 11 -7 11 C-4.69 7.37 -2.38 3.74 0 0 Z " fill="#0FDFC9" transform="translate(457,639)"/>
<path d="M0 0 C0.99 0 1.98 0 3 0 C3.103125 0.598125 3.20625 1.19625 3.3125 1.8125 C4.09385053 4.29861534 5.14895416 5.22943442 7 7 C7 7.66 7 8.32 7 9 C6.01 9.33 5.02 9.66 4 10 C3.32845067 8.71086513 2.66291141 7.41859796 2 6.125 C1.62875 5.40570312 1.2575 4.68640625 0.875 3.9453125 C0 2 0 2 0 0 Z " fill="#12C4CC" transform="translate(360,519)"/>
<path d="M0 0 C0.66 0.33 1.32 0.66 2 1 C1.07161713 2.31896465 0.13194268 3.62998689 -0.8125 4.9375 C-1.59560547 6.03384766 -1.59560547 6.03384766 -2.39453125 7.15234375 C-4 9 -4 9 -7 10 C-5.33248852 6.05860922 -2.77289351 3.2107188 0 0 Z " fill="#A6B0BA" transform="translate(673,668)"/>
<path d="M0 0 C2.4932534 0.99730136 3.77467439 1.65074531 5.25 3.9375 C6 6 6 6 6 9 C5.01 9.495 5.01 9.495 4 10 C3.32845067 8.71086513 2.66291141 7.41859796 2 6.125 C1.62875 5.40570313 1.2575 4.68640625 0.875 3.9453125 C0 2 0 2 0 0 Z " fill="#16CAD0" transform="translate(352,503)"/>
<path d="M0 0 C1.23967448 3.58128182 1.02699061 6.36603322 0 10 C-2.05078125 11.1796875 -2.05078125 11.1796875 -4 12 C-3.52494322 10.18641846 -3.04483958 8.37415821 -2.5625 6.5625 C-2.29566406 5.55316406 -2.02882812 4.54382813 -1.75390625 3.50390625 C-1 1 -1 1 0 0 Z " fill="#ABB6C2" transform="translate(255,492)"/>
<path d="M0 0 C0.99 0.33 1.98 0.66 3 1 C-1.5 5.875 -1.5 5.875 -6 7 C-4.02 4.69 -2.04 2.38 0 0 Z " fill="#16DEC2" transform="translate(560,607)"/>
<path d="M0 0 C0.99 0 1.98 0 3 0 C2.39301257 4.12751449 0.96189209 7.3321148 -1 11 C-2.60080151 6.99799622 -1.29279692 3.95443764 0 0 Z " fill="#49E5C1" transform="translate(632,576)"/>
<path d="M0 0 C3.875 0.875 3.875 0.875 5 2 C5.04063832 3.66617115 5.042721 5.33388095 5 7 C4.01 7.495 4.01 7.495 3 8 C0 2.25 0 2.25 0 0 Z " fill="#0AB8BF" transform="translate(387,573)"/>
<path d="M0 0 C0.99 0.33 1.98 0.66 3 1 C0.36 3.64 -2.28 6.28 -5 9 C-5.66 8.67 -6.32 8.34 -7 8 C-4.69 5.36 -2.38 2.72 0 0 Z " fill="#17E3CC" transform="translate(619,557)"/>
<path d="M0 0 C4.67105792 1.55701931 8.08705685 4.08447373 12 7 C11.01 7.33 10.02 7.66 9 8 C6.73828125 6.85546875 6.73828125 6.85546875 4.3125 5.1875 C3.50425781 4.64480469 2.69601562 4.10210937 1.86328125 3.54296875 C1.24839844 3.03378906 0.63351562 2.52460938 0 2 C0 1.34 0 0.68 0 0 Z " fill="#1CE4E0" transform="translate(399,354)"/>
<path d="M0 0 C0.92538169 3.70152678 1.08174162 4.63458162 0 8 C-0.99 8 -1.98 8 -3 8 C-3 8.66 -3 9.32 -3 10 C-3.66 9.67 -4.32 9.34 -5 9 C-3.35 6.03 -1.7 3.06 0 0 Z " fill="#BDB6A0" transform="translate(273,452)"/>
<path d="M0 0 C1.21386936 3.64160808 0.6674695 4.33165469 -0.9375 7.6875 C-1.31777344 8.49574219 -1.69804688 9.30398437 -2.08984375 10.13671875 C-2.39019531 10.75160156 -2.69054687 11.36648437 -3 12 C-3.33 12 -3.66 12 -4 12 C-4 9.69 -4 7.38 -4 5 C-3.34 5 -2.68 5 -2 5 C-1.7834375 4.0409375 -1.7834375 4.0409375 -1.5625 3.0625 C-1 1 -1 1 0 0 Z " fill="#1BEDE6" transform="translate(794,238)"/>
<path d="M0 0 C0.66 0 1.32 0 2 0 C2 0.66 2 1.32 2 2 C2.66 2.33 3.32 2.66 4 3 C-3.42857143 5.42857143 -3.42857143 5.42857143 -7 4 C-6.030625 3.525625 -5.06125 3.05125 -4.0625 2.5625 C-1.19522563 1.29806053 -1.19522563 1.29806053 0 0 Z " fill="#ABAFA7" transform="translate(573,791)"/>
<path d="M0 0 C1.32 0.66 2.64 1.32 4 2 C2.35 4.31 0.7 6.62 -1 9 C-2.07349791 4.70600835 -1.79682816 3.80504787 0 0 Z " fill="#A4E25F" transform="translate(565,709)"/>
<path d="M0 0 C0.66 0.33 1.32 0.66 2 1 C0.90081184 1.98475214 -0.2045602 2.96260473 -1.3125 3.9375 C-1.92738281 4.48277344 -2.54226563 5.02804687 -3.17578125 5.58984375 C-5 7 -5 7 -8 8 C-7.67 7.01 -7.34 6.02 -7 5 C-6.34 5 -5.68 5 -5 5 C-4.67 4.01 -4.34 3.02 -4 2 C-2.0625 0.75 -2.0625 0.75 0 0 Z " fill="#23E1B8" transform="translate(523,640)"/>
<path d="M0 0 C1 3 1 3 -0.25 6.0625 C-2 9 -2 9 -5 11 C-4.46884894 6.48521602 -2.63379708 3.65333143 0 0 Z " fill="#18DFD7" transform="translate(576,460)"/>
<path d="M0 0 C0.28875 0.639375 0.5775 1.27875 0.875 1.9375 C1.82823451 4.15206079 1.82823451 4.15206079 4 5 C3.67 6.98 3.34 8.96 3 11 C-1.13333333 4.8 -1.13333333 4.8 -0.625 1.75 C-0.41875 1.1725 -0.2125 0.595 0 0 Z " fill="#18E9E6" transform="translate(244,280)"/>
<path d="M0 0 C2.475 0.495 2.475 0.495 5 1 C6.125 4.75 6.125 4.75 5 7 C4.34 7 3.68 7 3 7 C2.01 4.69 1.02 2.38 0 0 Z " fill="#9CE47F" transform="translate(459,720)"/>
<path d="M0 0 C4.04420651 1.77945087 7.46078487 4.39529673 11 7 C10.67 7.66 10.34 8.32 10 9 C8.3278148 7.88321917 6.66237197 6.75633648 5 5.625 C3.6078125 4.68527344 3.6078125 4.68527344 2.1875 3.7265625 C1.465625 3.15679688 0.74375 2.58703125 0 2 C0 1.34 0 0.68 0 0 Z " fill="#A4AFBB" transform="translate(348,701)"/>
<path d="M0 0 C2.9297008 2.82506863 5.50174717 5.78796065 8 9 C7.67 9.66 7.34 10.32 7 11 C4.35247996 8.42215154 2.05567935 6.08351902 0 3 C0 2.01 0 1.02 0 0 Z " fill="#A9B3BE" transform="translate(308,658)"/>
<path d="M0 0 C0.33 0.66 0.66 1.32 1 2 C1.66 2 2.32 2 3 2 C3.625 4.375 3.625 4.375 4 7 C3.34 7.66 2.68 8.32 2 9 C0.4375 6.1875 0.4375 6.1875 -1 3 C-0.67 2.01 -0.34 1.02 0 0 Z " fill="#0DA8AD" transform="translate(416,629)"/>
<path d="M0 0 C0.66 0 1.32 0 2 0 C2.33 1.32 2.66 2.64 3 4 C3.66 4 4.32 4 5 4 C5 5.98 5 7.96 5 10 C2.35534962 6.8745041 1.15585285 3.91211733 0 0 Z " fill="#BADB58" transform="translate(469,739)"/>
<path d="M0 0 C4.95 1.98 4.95 1.98 10 4 C10 4.66 10 5.32 10 6 C8.5164999 5.57742724 7.03823576 5.13643678 5.5625 4.6875 C4.73878906 4.44386719 3.91507812 4.20023438 3.06640625 3.94921875 C2.04353516 3.47935547 2.04353516 3.47935547 1 3 C0.67 2.01 0.34 1.02 0 0 Z " fill="#A5B0BB" transform="translate(399,732)"/>
<path d="M0 0 C0.66 0.66 1.32 1.32 2 2 C-0.97 4.475 -0.97 4.475 -4 7 C-4.33 5.68 -4.66 4.36 -5 3 C-4.360625 2.87625 -3.72125 2.7525 -3.0625 2.625 C-2.0415625 2.315625 -2.0415625 2.315625 -1 2 C-0.67 1.34 -0.34 0.68 0 0 Z " fill="#28D99E" transform="translate(457,694)"/>
<path d="M0 0 C0.66 0.33 1.32 0.66 2 1 C-1.625 7.875 -1.625 7.875 -5 9 C-3.50163895 5.88801935 -1.80066242 2.9465385 0 0 Z " fill="#A5B1BC" transform="translate(686,651)"/>
<path d="M0 0 C0.66 0.33 1.32 0.66 2 1 C-1.96 4.465 -1.96 4.465 -6 8 C-6.66 7.67 -7.32 7.34 -8 7 C-3.76744186 1.25581395 -3.76744186 1.25581395 0 0 Z " fill="#1EE5C7" transform="translate(594,580)"/>
<path d="M0 0 C0.99 0.33 1.98 0.66 3 1 C3.185625 2.2065625 3.185625 2.2065625 3.375 3.4375 C3.58125 4.283125 3.7875 5.12875 4 6 C4.66 6.33 5.32 6.66 6 7 C5.01 8.485 5.01 8.485 4 10 C3.32845067 8.71086513 2.66291141 7.41859796 2 6.125 C1.62875 5.40570312 1.2575 4.68640625 0.875 3.9453125 C0 2 0 2 0 0 Z " fill="#0CBBC4" transform="translate(375,549)"/>
<path d="M0 0 C0.66 0.99 1.32 1.98 2 3 C1.125 5.6875 1.125 5.6875 0 8 C-0.33 7.34 -0.66 6.68 -1 6 C-1.66 6 -2.32 6 -3 6 C-3 5.34 -3 4.68 -3 4 C-2.34 4 -1.68 4 -1 4 C-0.67 2.68 -0.34 1.36 0 0 Z " fill="#A9B4C0" transform="translate(771,589)"/>
<path d="M0 0 C0.66 0 1.32 0 2 0 C5.07692308 5.41538462 5.07692308 5.41538462 4.6875 8.375 C4.460625 8.91125 4.23375 9.4475 4 10 C0 3.375 0 3.375 0 0 Z " fill="#0FC5C6" transform="translate(489,501)"/>
<path d="M0 0 C2 2 2 2 2.125 5.125 C2.08375 6.07375 2.0425 7.0225 2 8 C1.34 8 0.68 8 0 8 C-1.125 2.25 -1.125 2.25 0 0 Z " fill="#A3AFBD" transform="translate(730,494)"/>
<path d="M0 0 C0.66 0.33 1.32 0.66 2 1 C0.02 5.455 0.02 5.455 -2 10 C-3.19156292 5.23374833 -2.3415946 4.12120649 0 0 Z " fill="#19DBCF" transform="translate(718,400)"/>
<path d="M0 0 C4.83256305 0.41421969 6.82679218 2.46413986 10 6 C6.00452264 5.38531118 3.22493358 3.34540624 0 1 C0 0.67 0 0.34 0 0 Z " fill="#1DE7E3" transform="translate(415,366)"/>
<path d="M0 0 C0.33 0.99 0.66 1.98 1 3 C0.01 3.33 -0.98 3.66 -2 4 C-2 4.66 -2 5.32 -2 6 C-3.65 6.66 -5.3 7.32 -7 8 C-6.02133662 6.85373678 -5.04205413 5.70800212 -4.0625 4.5625 C-3.51722656 3.92441406 -2.97195313 3.28632812 -2.41015625 2.62890625 C-1.63204305 1.73008851 -0.84063472 0.84063472 0 0 Z " fill="#A9B1BA" transform="translate(642,700)"/>
<path d="M0 0 C0.91058531 3.07322544 1.08886184 5.80097361 1 9 C0.01 9.33 -0.98 9.66 -2 10 C-1.85950482 8.52031676 -1.71245174 7.04125484 -1.5625 5.5625 C-1.48128906 4.73878906 -1.40007812 3.91507812 -1.31640625 3.06640625 C-1 1 -1 1 0 0 Z " fill="#03BCCE" transform="translate(421,430)"/>
<path d="M0 0 C0.66 0.33 1.32 0.66 2 1 C0 4 0 4 -3.125 4.6875 C-4.07375 4.790625 -5.0225 4.89375 -6 5 C-2.25 1.125 -2.25 1.125 0 0 Z " fill="#C6BF95" transform="translate(430,317)"/>
<path d="M0 0 C1.33855056 0.78281305 2.67073644 1.57651877 4 2.375 C5.11375 3.03628906 5.11375 3.03628906 6.25 3.7109375 C6.8275 4.13632812 7.405 4.56171875 8 5 C8 5.66 8 6.32 8 7 C4.66272214 5.82744291 2.22562513 4.81131596 0 2 C0 1.34 0 0.68 0 0 Z " fill="#19EBE6" transform="translate(302,286)"/>
<path d="M0 0 C0.99 0.33 1.98 0.66 3 1 C3.33 2.98 3.66 4.96 4 7 C3.01 7.495 3.01 7.495 2 8 C0.23537317 4.91190305 0 3.76687864 0 0 Z " fill="#E6D938" transform="translate(484,767)"/>
<path d="M0 0 C0.66 0.33 1.32 0.66 2 1 C1 4 1 4 -1.0625 5.1875 C-1.701875 5.455625 -2.34125 5.72375 -3 6 C-3.33 5.34 -3.66 4.68 -4 4 C-2 1 -2 1 0 0 Z " fill="#9EABBA" transform="translate(259,487)"/>
</svg>
